<svg xmlns="http://www.w3.org/2000/svg" viewBox="0 0 100 100" width="100" height="100">
  <!-- Apple Logo -->
  <path d="M50 15 C45 15, 40 20, 40 25 C40 30, 45 35, 50 35 C55 35, 60 30, 60 25 C60 20, 55 15, 50 15 Z" fill="#000000"/>
  <path d="M35 30 C30 30, 25 35, 25 45 C25 55, 30 65, 35 70 C40 75, 45 75, 50 75 C55 75, 60 75, 65 70 C70 65, 75 55, 75 45 C75 35, 70 30, 65 30 C60 30, 55 35, 50 35 C45 35, 40 30, 35 30 Z" fill="#000000"/>
  <path d="M45 15 C45 10, 48 5, 52 8" stroke="#000000" stroke-width="2" fill="none"/>
</svg>