<?xml version="1.0" encoding="UTF-8" standalone="no"?>
<!-- Created with Inkscape (http://www.inkscape.org/) -->

<svg
   version="1.1"
   id="svg1"
   width="8002.5732"
   height="5333.3335"
   viewBox="0 0 8002.5732 5333.3335"
   sodipodi:docname="vecteezy_chalkboard-ready-for-online-education_62255110.eps"
   xmlns:inkscape="http://www.inkscape.org/namespaces/inkscape"
   xmlns:sodipodi="http://sodipodi.sourceforge.net/DTD/sodipodi-0.dtd"
   xmlns="http://www.w3.org/2000/svg"
   xmlns:svg="http://www.w3.org/2000/svg">
  <defs
     id="defs1" />
  <sodipodi:namedview
     id="namedview1"
     pagecolor="#ffffff"
     bordercolor="#000000"
     borderopacity="0.25"
     inkscape:showpageshadow="2"
     inkscape:pageopacity="0.0"
     inkscape:pagecheckerboard="0"
     inkscape:deskcolor="#d1d1d1">
    <inkscape:page
       x="0"
       y="0"
       inkscape:label="1"
       id="page1"
       width="8002.5732"
       height="5333.3335"
       margin="0"
       bleed="0" />
  </sodipodi:namedview>
  <g
     id="g1"
     inkscape:groupmode="layer"
     inkscape:label="1">
    <g
       id="group-R5">
      <path
         id="path2"
         d="m 0,40000 h 59949 c 33,-53 45,-98 48,-160 26,-563 4,-1136 4,-1700 V 34825 24710 6175 1673 c 0,-311 46,-1329 -8,-1571 -9,-38 -23,-70 -43,-102 H 0 v 40000"
         style="fill:#ffffff;fill-opacity:1;fill-rule:nonzero;stroke:none"
         transform="matrix(0.13333333,0,0,-0.13333333,0,5333.3333)" />
      <path
         id="path3"
         d="m 3472,37980 52992,11 c 27,-47 44,-90 48,-145 48,-617 7,-1271 7,-1891 l 2,-3811 1,-22387 -1,-5196 -1,-1551 c -1,-287 15,-584 -19,-868 -28,-28 -45,-44 -84,-56 -488,-25 -989,0 -1478,0 l -3005,3 -9039,-1 -28695,-3 -7170.99,2 h -2351 c -331,0 -676,-25 -1006,-7 -98,5 -136.01,15 -216.01,71 80,791 11.01,1924 8,2750 l 3,5379 -3,17908 15,6387 c 0,1110 -74,2304 -7,3405"
         style="fill:#90481f;fill-opacity:1;fill-rule:nonzero;stroke:none"
         transform="matrix(0.13333333,0,0,-0.13333333,0,5333.3333)" />
      <path
         id="path4"
         d="m 4318,37150 51356,7 c 31,-53 44,-91 47,-153 19,-343 3,-695 3,-1038 l -1,-2052 v -6304 l 3,-15726 -5,-5555 c -9,-936 -11,-1873 -4,-2809 2,-113 6,-190 -75,-274 l -88,4 c 79,362 21,1740 25,2207 27,2371 29,4742 4,7113 l 3,12623 c -1,1259 20,2517 4,3776 -23,1725 -13,3452 -16,5177 -1,783 46,1593 -10,2372 -5,65 -20,120 -51,178 -65,-127 -166,-172 -296,-215 -377,62 -838,16 -1221,17 l -2954,1 -9481,3 -36794.01,-8 -282,311 -30,-21881 4,-7611 c 0,-889 5,-1778 14,-2667 4,-438 -16,-891 15,-1327 l -117,-152 c -4,7 -8,14 -12,21 -46,75 -48,138 -51,224 -32,1179 4,2369 6,3549 l -4,6406 8.01,23783"
         style="fill:#efc553;fill-opacity:1;fill-rule:nonzero;stroke:none"
         transform="matrix(0.13333333,0,0,-0.13333333,0,5333.3333)" />
      <path
         id="path5"
         d="m 4483,36804 282,-311 c 282,-266 1460,-1580 1738,-1604 l -8,-17379 c -58,-414 -23,-872 -23,-1291 l -1,-2456 3,-8665 C 5835,4508 5125,3968 4526,3340 l -40,-22 c -31,436 -12,889 -15,1327 -9,889 -14,1778 -14,2667 l -4,7611 30,21881"
         style="fill:#d39747;fill-opacity:1;fill-rule:nonzero;stroke:none"
         transform="matrix(0.13333333,0,0,-0.13333333,0,5333.3333)" />
      <path
         id="path6"
         d="m 55216,36480 c 130,43 231,87 296,215 31,-58 46,-112 51,-178 56,-779 9,-1589 10,-2372 3,-1725 -7,-3452 16,-5177 16,-1259 -5,-2517 -4,-3776 l -3,-12623 c 25,-2371 24,-4742 -4,-7113 -4,-467 55,-1845 -25,-2207 l -55,-4 c -59,56 -115,74 -191,100 l -18,59 c -218,204 -448,394 -665,599 -321,303 -817,881 -1191,1077 7,17 16,39 21,57 50,204 54,1779 -31,1932 9,19 12,25 18,44 63,212 18,965 19,1251 l 3,3348 3,15551 1,5040 c 0,803 49,1672 -4,2467 -3,50 -17,80 -41,123 5,2 11,3 17,5 39,10 77,20 113,41 112,65 1612,1419 1646,1475 10,19 11,44 18,66"
         style="fill:#d39747;fill-opacity:1;fill-rule:nonzero;stroke:none"
         transform="matrix(0.13333333,0,0,-0.13333333,0,5333.3333)" />
      <path
         id="path7"
         d="m 4765,36493 36794,8 9481,-3 2954,-1 c 384,-1 845,45 1221,-17 -7,-22 -8,-46 -20,-66 -33,-55 -1534,-1410 -1646,-1475 -36,-21 -73,-30 -113,-41 -5,-1 -11,-3 -17,-5 -309,60 -720,10 -1039,9 l -2479,-11 -9371,-14 -22323,5 c -3900,4 -7806,59 -11706,7 -275,24 -1454,1338 -1736,1604"
         style="fill:#f49011;fill-opacity:1;fill-rule:nonzero;stroke:none"
         transform="matrix(0.13333333,0,0,-0.13333333,0,5333.3333)" />
      <path
         id="path8"
         d="m 6474,5098 -3,8665 1,2456 c 0,419 -35,877 23,1291 13,-1191 -5,-2382 -3,-3573 l 6,-8815 29494,-1 11370,2 3736,-17 c 763,-2 1531,14 2293,-7 81,127 95,1696 52,1913 -6,30 -9,34 -20,58 85,-154 81,-1729 31,-1932 -5,-19 -14,-40 -21,-57 375,-197 870,-774 1191,-1077 217,-205 447,-395 665,-599 l 18,-59 c -392,-55 -923,-6 -1333,-6 H 50953 40429 4526 c 600,628 1309,1169 1948,1758"
         style="fill:#b2681f;fill-opacity:1;fill-rule:nonzero;stroke:none"
         transform="matrix(0.13333333,0,0,-0.13333333,0,5333.3333)" />
      <path
         id="path9"
         d="m 6503,34889 c 3900,52 7805,-3 11706,-7 l 22323,-5 9371,14 2479,11 c 320,1 731,51 1039,-9 23,-43 38,-73 41,-123 53,-794 5,-1664 4,-2467 l -1,-5040 -3,-15551 -3,-3348 c 0,-286 44,-1038 -19,-1251 -5,-18 -9,-25 -18,-44 11,-24 14,-28 20,-58 43,-216 29,-1785 -52,-1913 -762,21 -1530,5 -2293,7 l -3736,17 -11370,-2 -29494,1 -6,8815 c -1,1191 16,2382 3,3573 l 9,17380"
         style="fill:#192825;fill-opacity:1;fill-rule:nonzero;stroke:none"
         transform="matrix(0.13333333,0,0,-0.13333333,0,5333.3333)" />
      <path
         id="path10"
         d="m 22936,6474 c 2,-112 -5,-232 9,-342 l -14,-127 c -56,-45 -85,-54 -155,-64 -189,-28 -405,12 -598,10 -626,-7 -1253,-10 -1879,-11 l -6504,-4 -2446,-11 c -232,-1 -637,-46 -848,-2 -29,6 -32,9 -55,21 l -24,59 6,457 c 969,-31 1947,0 2917,-1 l 5961,-2 h 2531 c 337,0 775,-50 1099,17"
         style="fill:#d39747;fill-opacity:1;fill-rule:nonzero;stroke:none"
         transform="matrix(0.13333333,0,0,-0.13333333,0,5333.3333)" />
      <path
         id="path11"
         d="m 7418,33924 31715,18 c 4450,25 8899,24 13349,-4 21,-34 36,-67 44,-107 51,-239 5,-1501 5,-1829 l -5,-5125 18,-20321 c 0,-130 16,-289 -58,-402 -2737,-36 -5471,-5 -8207,-6 l -21333,-16 c -14,110 -8,231 -9,342 -324,-68 -761,-17 -1099,-18 h -2531 l -5961,2 c -970,1 -1948,-30 -2917,1 l -6,-457 -22,57 c -97,76 -2628,38 -2965,38 48,2055 -27,4119 -18,6175 v 21652"
         style="fill:#1f3a35;fill-opacity:1;fill-rule:nonzero;stroke:none"
         transform="matrix(0.13333333,0,0,-0.13333333,0,5333.3333)" />
      <path
         id="path12"
         d="m 10429,7216 12508,-3 -2,-739 c -324,-68 -761,-17 -1099,-18 h -2531 l -5961,2 c -970,1 -1948,-30 -2917,1 l 2,757"
         style="fill:#efc553;fill-opacity:1;fill-rule:nonzero;stroke:none"
         transform="matrix(0.13333333,0,0,-0.13333333,0,5333.3333)" />
    </g>
  </g>
</svg>
