<?xml version="1.0" encoding="UTF-8"?>
<svg xmlns="http://www.w3.org/2000/svg" viewBox="0 0 120 120" width="120" height="120">
  <!-- Bucket base -->
  <path d="M20,40 C20,40 30,110 60,110 C90,110 100,40 100,40 L20,40 Z" fill="#CD853F" stroke="#8B4513" stroke-width="3"/>
  
  <!-- Bucket rim -->
  <path d="M15,40 C15,40 25,30 60,30 C95,30 105,40 105,40" fill="none" stroke="#8B4513" stroke-width="3" stroke-linecap="round"/>
  
  <!-- Bucket inner shadow -->
  <path d="M25,45 C25,45 35,105 60,105 C85,105 95,45 95,45 L25,45 Z" fill="#A0522D"/>
  
  <!-- Bucket basket texture -->
  <path d="M30,55 L90,55" stroke="#8B4513" stroke-width="2" stroke-dasharray="3,3" fill="none" stroke-opacity="0.7"/>
  <path d="M28,70 L92,70" stroke="#8B4513" stroke-width="2" stroke-dasharray="4,3" fill="none" stroke-opacity="0.7"/>
  <path d="M26,85 L94,85" stroke="#8B4513" stroke-width="2" stroke-dasharray="5,3" fill="none" stroke-opacity="0.7"/>
  <path d="M28,100 L92,100" stroke="#8B4513" stroke-width="2" stroke-dasharray="3,4" fill="none" stroke-opacity="0.7"/>
  
  <!-- Bucket rim highlight -->
  <path d="M25,35 C25,35 35,25 60,25 C85,25 95,35 95,35" fill="none" stroke="#D2B48C" stroke-width="2" stroke-linecap="round" stroke-opacity="0.7"/>

  <!-- Bucket handle suggestion -->
  <path d="M35,40 C35,20 85,20 85,40" fill="none" stroke="#8B4513" stroke-width="3" stroke-linecap="round" stroke-opacity="0.5"/>
</svg>
