<?xml version="1.0" encoding="UTF-8" standalone="no"?>
<!-- Created with Inkscape (http://www.inkscape.org/) -->

<svg
   version="1.1"
   id="svg1"
   width="4000"
   height="4000"
   viewBox="0 0 4000 4000"
   sodipodi:docname="vecteezy_wood-chair-for-animation-cartoon_47811889.eps"
   xmlns:inkscape="http://www.inkscape.org/namespaces/inkscape"
   xmlns:sodipodi="http://sodipodi.sourceforge.net/DTD/sodipodi-0.dtd"
   xmlns="http://www.w3.org/2000/svg"
   xmlns:svg="http://www.w3.org/2000/svg">
  <defs
     id="defs1">
    <linearGradient
       x1="0"
       y1="0"
       x2="1"
       y2="0"
       gradientUnits="userSpaceOnUse"
       gradientTransform="matrix(4354.69,-8153.28,8153.28,4354.69,17557.4,22643.5)"
       spreadMethod="pad"
       id="linearGradient28">
      <stop
         style="stop-opacity:1;stop-color:#8a4723"
         offset="0"
         id="stop27" />
      <stop
         style="stop-opacity:1;stop-color:#622b2c"
         offset="1"
         id="stop28" />
    </linearGradient>
    <clipPath
       clipPathUnits="userSpaceOnUse"
       id="clipPath28">
      <path
         d="M 23121.3,23499.1 22131,17215.2 c 4,-304 35.9,-609.9 32,-913.3 l 4.9,-147.5 c 11,-234.8 9,-470.2 9.7,-705.2 -254.4,-100.6 -522.4,-175.8 -783.5,-257.2 -586,-180.1 -1174.1,-353 -1764.4,-518.5 l -3790.1,-1128 -958,-283.7 c -170,-50.1 -349.1,-92.7 -513.9,-156.9 l 3.3,-126.7 1.5,-431.7 2.2,-25.2 c 3.3,-37.9 0.9,-80.1 30.8,-105.2 346.1,79.1 691.5,215.5 1032.9,318.3 l 2698.5,833.6 3500.3,1078 c 455.4,139.1 917.7,260.7 1369.7,410.1 44.2,19.1 94.6,31 140.7,45.7 -36.7,459.1 -42,924.7 -61.4,1385 -13.4,318.7 -50.4,656.3 -32.3,974.2 9.1,159.9 39.7,321.6 61.6,480.3 l 124,891.5 437.9,3012.7 447,3080.3 119.8,775 c 21,131 31.4,288.7 80,412.1 -237.6,-120 -536.3,-172.5 -791.1,-249.8 -126,-789.4 -281,-1574.9 -411.8,-2364 z"
         id="path28" />
    </clipPath>
    <linearGradient
       x1="0"
       y1="0"
       x2="1"
       y2="0"
       gradientUnits="userSpaceOnUse"
       gradientTransform="matrix(4354.69,-8153.28,8153.28,4354.69,20938.4,24449.3)"
       spreadMethod="pad"
       id="linearGradient32">
      <stop
         style="stop-opacity:1;stop-color:#8a4723"
         offset="0"
         id="stop31" />
      <stop
         style="stop-opacity:1;stop-color:#622b2c"
         offset="1"
         id="stop32" />
    </linearGradient>
    <clipPath
       clipPathUnits="userSpaceOnUse"
       id="clipPath32">
      <path
         d="m 22231.4,22013.3 c -120.1,-681.5 -307.5,-1350.8 -429.9,-2031.3 -160.3,-831.1 -325.9,-1661.1 -496.8,-2490.2 267.1,-93.2 551.3,-216.7 826.3,-276.6 l 990.3,6283.9 c 130.8,789.1 285.8,1574.6 411.8,2364 -144.5,36.1 -287.6,76.8 -429.4,122.2 -62.6,-86.4 -74,-248.1 -97.8,-353 -238.1,-1052.8 -435.5,-2115.6 -676.7,-3167 -41.3,-148.6 -68,-300.8 -97.8,-452 z"
         id="path32" />
    </clipPath>
    <linearGradient
       x1="0"
       y1="0"
       x2="1"
       y2="0"
       gradientUnits="userSpaceOnUse"
       gradientTransform="matrix(-1458.86,430.936,-430.936,-1458.86,23321.8,21391.4)"
       spreadMethod="pad"
       id="linearGradient34">
      <stop
         style="stop-opacity:1;stop-color:#b5763f"
         offset="0"
         id="stop33" />
      <stop
         style="stop-opacity:1;stop-color:#df8e4f"
         offset="1"
         id="stop34" />
    </linearGradient>
    <clipPath
       clipPathUnits="userSpaceOnUse"
       id="clipPath34">
      <path
         d="m 22231.4,22013.3 c -120.1,-681.5 -307.5,-1350.8 -429.9,-2031.3 -160.3,-831.1 -325.9,-1661.1 -496.8,-2490.2 267.1,-93.2 551.3,-216.7 826.3,-276.6 l 990.3,6283.9 c 130.8,789.1 285.8,1574.6 411.8,2364 -144.5,36.1 -287.6,76.8 -429.4,122.2 -62.6,-86.4 -74,-248.1 -97.8,-353 -238.1,-1052.8 -435.5,-2115.6 -676.7,-3167 -41.3,-148.6 -68,-300.8 -97.8,-452 z"
         id="path34" />
    </clipPath>
  </defs>
  <sodipodi:namedview
     id="namedview1"
     pagecolor="#ffffff"
     bordercolor="#000000"
     borderopacity="0.25"
     inkscape:showpageshadow="2"
     inkscape:pageopacity="0.0"
     inkscape:pagecheckerboard="0"
     inkscape:deskcolor="#d1d1d1">
    <inkscape:page
       x="0"
       y="0"
       inkscape:label="1"
       id="page1"
       width="4000"
       height="4000"
       margin="0"
       bleed="0" />
  </sodipodi:namedview>
  <g
     id="g1"
     inkscape:groupmode="layer"
     inkscape:label="1">
    <g
       id="group-R5">
      <path
         id="path2"
         d="M 0,30000 H 30000 V 0 H 0 v 30000"
         style="fill:#fafbfc;fill-opacity:1;fill-rule:nonzero;stroke:none"
         transform="matrix(0.13333333,0,0,-0.13333333,0,4000)" />
      <path
         id="path3"
         d="m 17285.3,28008.3 -3.1,23.4 c -105.6,60.9 -260.3,82.4 -379.9,111.6 -224.5,-63 -781.8,-183.8 -961,-281 152,-66.2 323.1,-94.9 485.4,-124.7 281.3,82.3 592.3,150.2 858.6,270.7"
         style="fill:#f3c394;fill-opacity:1;fill-rule:nonzero;stroke:none"
         transform="matrix(0.13333333,0,0,-0.13333333,0,4000)" />
      <path
         id="path4"
         d="m 23533.1,25863.1 c 254.8,77.3 553.5,129.8 791.1,249.8 -91.2,99 -341.1,141.9 -469.4,189.1 -170.7,-63.3 -641.7,-205.7 -771.2,-303.7 l 20.1,-13 c 141.8,-45.4 284.9,-86.1 429.4,-122.2"
         style="fill:#f3c394;fill-opacity:1;fill-rule:nonzero;stroke:none"
         transform="matrix(0.13333333,0,0,-0.13333333,0,4000)" />
      <path
         id="path5"
         d="m 16297.4,27120.8 c 84,-2.9 174.9,0.1 257.3,-15 l 4.7,10.8 c 7.7,34 18.3,67 28.7,100.3 37,39.7 88.5,41.2 139.3,50.3 146.1,36.7 366.6,68.7 488.5,151.7 -15.5,185.3 33.6,408.2 69.4,589.4 -266.3,-120.5 -577.3,-188.4 -858.6,-270.7 -45.4,-205.1 -88.6,-410.7 -129.3,-616.8"
         style="fill:#844e2a;fill-opacity:1;fill-rule:nonzero;stroke:none"
         transform="matrix(0.13333333,0,0,-0.13333333,0,4000)" />
      <path
         id="path6"
         d="m 15124.7,19643.5 c -288.8,78.9 -569.3,187.8 -858.7,264.7 -50.3,-215.4 -11.5,-834.2 3.1,-1078.4 287,-65.5 561.6,-180.6 846.8,-251.1 6.8,354.9 9.8,709.9 8.8,1064.8"
         style="fill:#a66439;fill-opacity:1;fill-rule:nonzero;stroke:none"
         transform="matrix(0.13333333,0,0,-0.13333333,0,4000)" />
      <path
         id="path7"
         d="m 21127.5,26155.8 1392.1,-357.9 c 156.5,-40.9 325.4,-64.1 477.8,-115.3 l 8.5,-50.3 c 23.8,104.9 35.2,266.6 97.8,353 l -20.1,13 c -579.2,164.2 -1172.6,287.6 -1757,432.8 l -2799.2,692.8 c -238.5,58.6 -1122.3,313 -1311.5,295 -121.9,-83 -342.4,-115 -488.5,-151.7 1470.7,-355 2937.4,-725.5 4400.1,-1111.4"
         style="fill:#d7803e;fill-opacity:1;fill-rule:nonzero;stroke:none"
         transform="matrix(0.13333333,0,0,-0.13333333,0,4000)" />
      <path
         id="path8"
         d="m 18389.1,26603.6 c 1430.4,-368.7 2858.3,-746.8 4283.7,-1134.3 59.6,96.4 224.7,161.1 324.6,213.3 -152.4,51.2 -321.3,74.4 -477.8,115.3 l -1392.1,357.9 c -1462.7,385.9 -2929.4,756.4 -4400.1,1111.4 -50.8,-9.1 -102.3,-10.6 -139.3,-50.3 -10.4,-33.3 -21,-66.3 -28.7,-100.3 6.2,-10.4 9.9,-22.7 18.5,-31.2 39.4,-38.8 1657.7,-442.6 1811.2,-481.8"
         style="fill:#ca8e5b;fill-opacity:1;fill-rule:nonzero;stroke:none"
         transform="matrix(0.13333333,0,0,-0.13333333,0,4000)" />
      <path
         id="path9"
         d="m 14362.1,20003.8 c 100.8,202.4 161.6,451.2 228.8,667.5 129.4,410.8 253.8,823.2 373.1,1237.2 224.6,769.9 474.6,1532.9 705.8,2300.7 56.6,188 152.4,741.1 271,842.9 17.9,206.5 72.5,423.5 106.4,629 76.4,481.1 159.8,961 250.2,1439.7 40.7,206.1 83.9,411.7 129.3,616.8 -162.3,29.8 -333.4,58.5 -485.4,124.7 -113.7,-635.2 -269,-1265.8 -402.3,-1897.4 l -937.3,-4462 c -67.8,-320.8 -139.5,-640.8 -215.3,-959.8 -45.6,-197.8 -117.9,-423.3 -118.6,-626.6 50.7,14.4 71.5,41.4 94.3,87.3"
         style="fill:#d7803e;fill-opacity:1;fill-rule:nonzero;stroke:none"
         transform="matrix(0.13333333,0,0,-0.13333333,0,4000)" />
      <path
         id="path10"
         d="m 15302.1,20439.3 c 110.9,487.2 224.4,973.8 340.5,1459.9 l -6.1,6.2 -245.9,81.6 c 49.1,212 76.1,433.4 115.1,647.9 l 231.8,1223.5 c 32.5,157.7 58.8,316.9 87.3,475.3 24.9,239.8 75.1,480.7 116,718.4 -118.6,-101.8 -214.4,-654.9 -271,-842.9 -231.2,-767.8 -481.2,-1530.8 -705.8,-2300.7 -119.3,-414 -243.7,-826.4 -373.1,-1237.2 -67.2,-216.3 -128,-465.1 -228.8,-667.5 -22.8,-45.9 -43.6,-72.9 -94.3,-87.3 l -1.8,-8.3 c 289.4,-76.9 569.9,-185.8 858.7,-264.7 42.3,265.8 117.1,533.4 177.4,795.8"
         style="fill:#b56d36;fill-opacity:1;fill-rule:nonzero;stroke:none"
         transform="matrix(0.13333333,0,0,-0.13333333,0,4000)" />
      <path
         id="path11"
         d="m 16823.7,24106.3 c 158.8,-20.1 337.7,-88.5 494.2,-130.5 379.4,-100.6 758.3,-203 1136.6,-307.4 l 3676.1,-1011.1 c 114.4,480.5 191.4,975.8 287.1,1460.8 87.8,445 203.1,901.2 255.1,1351.2 -1425.4,387.5 -2853.3,765.6 -4283.7,1134.3 -153.5,39.2 -1771.8,443 -1811.2,481.8 -8.6,8.5 -12.3,20.8 -18.5,31.2 l -4.7,-10.8 c -175.2,-924.8 -302.8,-1860.4 -488.4,-2782.4 252,-66.4 512.5,-127.3 757.4,-217.1"
         style="fill:#a75a4e;fill-opacity:1;fill-rule:nonzero;stroke:none"
         transform="matrix(0.13333333,0,0,-0.13333333,0,4000)" />
      <path
         id="path12"
         d="m 16804.5,24002.8 c -117.4,48.4 -694,209.4 -747.5,264.4 l 12.1,15.7 c 189.5,23.2 546.9,-189.1 729.7,-178.8 8.3,0.4 16.6,1.4 24.9,2.2 -244.9,89.8 -505.4,150.7 -757.4,217.1 185.6,922 313.2,1857.6 488.4,2782.4 -82.4,15.1 -173.3,12.1 -257.3,15 -90.4,-478.7 -173.8,-958.6 -250.2,-1439.7 -33.9,-205.5 -88.5,-422.5 -106.4,-629 -40.9,-237.7 -91.1,-478.6 -116,-718.4 309.9,-156.4 653,-221.3 972.9,-351 l 6.8,20.1"
         style="fill:#7e3528;fill-opacity:1;fill-rule:nonzero;stroke:none"
         transform="matrix(0.13333333,0,0,-0.13333333,0,4000)" />
      <path
         id="path13"
         d="m 15863.1,23817.2 c 12.3,-0.8 24.6,-2.5 36.8,-4.1 l 20.8,16.4 c 258.7,-63.5 514.9,-152.7 769.9,-230.5 26.4,126.5 52.7,254.9 109.1,371.9 l -2,11.8 c -319.9,129.7 -663,194.6 -972.9,351 -28.5,-158.4 -54.8,-317.6 -87.3,-475.3 l 21.6,-32.4 c 35.6,-5.8 68.3,-6.8 104,-8.8"
         style="fill:#5f3b45;fill-opacity:1;fill-rule:nonzero;stroke:none"
         transform="matrix(0.13333333,0,0,-0.13333333,0,4000)" />
      <path
         id="path14"
         d="m 22672.8,25469.3 c -52,-450 -167.3,-906.2 -255.1,-1351.2 -95.7,-485 -172.7,-980.3 -287.1,-1460.8 l -3676.1,1011.1 c -378.3,104.4 -757.2,206.8 -1136.6,307.4 -156.5,42 -335.4,110.4 -494.2,130.5 -8.3,-0.8 -16.6,-1.8 -24.9,-2.2 -182.8,-10.3 -540.2,202 -729.7,178.8 l -12.1,-15.7 c 53.5,-55 630.1,-216 747.5,-264.4 l -6.8,-20.1 2,-11.8 c 1544.4,-440.3 3091.3,-871.8 4640.7,-1294.5 294.2,-78.8 596.3,-131.8 888.8,-211.1 241.2,1051.4 438.6,2114.2 676.7,3167 l -8.5,50.3 c -99.9,-52.2 -265,-116.9 -324.6,-213.3"
         style="fill:#772d2f;fill-opacity:1;fill-rule:nonzero;stroke:none"
         transform="matrix(0.13333333,0,0,-0.13333333,0,4000)" />
      <path
         id="path15"
         d="m 16799.7,23970.9 c 1544.4,-440.3 3091.3,-871.8 4640.7,-1294.5 -1549.4,422.7 -3096.3,854.2 -4640.7,1294.5"
         style="fill:#407f8f;fill-opacity:1;fill-rule:nonzero;stroke:none"
         transform="matrix(0.13333333,0,0,-0.13333333,0,4000)" />
      <path
         id="path16"
         d="m 21987.5,21996.6 109.7,17.9 c -122.6,-9.6 -237.6,42.2 -358.1,34.5 l -25.4,-268.6 c -576.7,151.3 -1147.8,336.6 -1719.7,505.4 -1379.3,412.4 -2761.9,813.8 -4147.6,1204.1 -61.5,-465.2 -153.4,-927.1 -222.8,-1391.4 l 4343.6,-1362.9 c 552.1,-176.7 1128.5,-316.5 1668.3,-526.5 90.2,436.6 176.6,873.9 259.3,1311.9 27.4,143.4 35.1,345.1 92.7,475.6"
         style="fill:#a75a4e;fill-opacity:1;fill-rule:nonzero;stroke:none"
         transform="matrix(0.13333333,0,0,-0.13333333,0,4000)" />
      <path
         id="path17"
         d="m 18631.6,20975.5 c 988,-305.7 1973.8,-618.1 2957.5,-937.1 25.3,53.5 34.1,113.1 46.4,170.7 -539.8,210 -1116.2,349.8 -1668.3,526.5 l -4343.6,1362.9 c 69.4,464.3 161.3,926.2 222.8,1391.4 12.3,82.4 27.5,164.5 41.5,246.5 l 12,76.7 c -12.2,1.6 -24.5,3.3 -36.8,4.1 -35.7,2 -68.4,3 -104,8.8 l -21.6,32.4 -231.8,-1223.5 c -39,-214.5 -66,-435.9 -115.1,-647.9 l 245.9,-81.6 6.1,-6.2 c 227,-32.5 447.6,-140.3 672.7,-189.6 773.9,-239.1 1546,-483.8 2316.3,-734.1"
         style="fill:#772d2f;fill-opacity:1;fill-rule:nonzero;stroke:none"
         transform="matrix(0.13333333,0,0,-0.13333333,0,4000)" />
      <path
         id="path18"
         d="m 21713.7,21780.4 25.4,268.6 c -173.6,14.2 -369.4,88.3 -536.9,137.1 l -974.2,286.5 c -1452.2,402.5 -2898.9,823.8 -4340.1,1263.8 -14,-82 -29.2,-164.1 -41.5,-246.5 1385.7,-390.3 2768.3,-791.7 4147.6,-1204.1 571.9,-168.8 1143,-354.1 1719.7,-505.4"
         style="fill:#ca8e5b;fill-opacity:1;fill-rule:nonzero;stroke:none"
         transform="matrix(0.13333333,0,0,-0.13333333,0,4000)" />
      <path
         id="path19"
         d="m 21202.2,22186.1 c 167.5,-48.8 363.3,-122.9 536.9,-137.1 120.5,7.7 235.5,-44.1 358.1,-34.5 l 49.9,0.8 c -141.2,82.7 -357.6,120.6 -517.1,166.2 l -943.7,266.5 c -776.3,217.6 -1551.4,439.5 -2325.2,665.9 -557,158.4 -1120.5,304 -1670.5,485.1 -255,77.8 -511.2,167 -769.9,230.5 l -20.8,-16.4 -12,-76.7 c 1441.2,-440 2887.9,-861.3 4340.1,-1263.8 l 974.2,-286.5"
         style="fill:#d7803e;fill-opacity:1;fill-rule:nonzero;stroke:none"
         transform="matrix(0.13333333,0,0,-0.13333333,0,4000)" />
      <path
         id="path20"
         d="m 13151.3,15330.7 c 334.4,33.9 667.9,75.7 1000.4,125.4 1234.7,182 2464.4,393.4 3689,634.2 341,63.3 681,131.2 1020.2,203.6 162.5,35.1 338.6,63.3 494.9,120.3 -483.7,191.2 -976,355.7 -1466.8,527.2 -868.1,306.1 -1739.7,601.9 -2614.8,887.4 -240,79.2 -779.6,314.7 -1004.5,316.5 -154.1,1.2 -324.4,-53.4 -474.6,-86.7 l -747.5,-168.3 -2295.3,-518.8 -1512.03,-352.3 c -329.77,-77.9 -694.45,-194.4 -1033.04,-209.3 1109.21,-410 2230.97,-786 3341.97,-1191.9 166,-60.6 853.5,-291.7 961,-366.1 l 27.3,3 c 199.8,43.2 410.3,53.7 613.8,75.8"
         style="fill:#ed9c5b;fill-opacity:1;fill-rule:nonzero;stroke:none"
         transform="matrix(0.13333333,0,0,-0.13333333,0,4000)" />
      <path
         id="path21"
         d="M 7555.58,16142.9 9339.71,15496 c 346.66,-127.8 699.09,-277.5 1055.59,-374.2 238,24.6 486.7,2.8 726.6,13.5 464.9,20.6 925.7,68.1 1388.3,116.6 -107.5,74.4 -795,305.5 -961,366.1 -1111,405.9 -2232.76,781.9 -3341.97,1191.9 338.59,14.9 703.27,131.4 1033.04,209.3 l 1512.03,352.3 2295.3,518.8 747.5,168.3 c 150.2,33.3 320.5,87.9 474.6,86.7 224.9,-1.8 764.5,-237.3 1004.5,-316.5 875.1,-285.5 1746.7,-581.3 2614.8,-887.4 490.8,-171.5 983.1,-336 1466.8,-527.2 l 73.3,-10.8 c 366.7,70.6 739.3,124.5 1107.5,188.8 159.4,27.8 324.8,48.4 480.7,92.6 -361.4,110 -718.7,235.2 -1077.9,352.2 l -1702.9,548 c -765.9,249 -1536.8,481.9 -2301.1,735.9 -268.9,96.5 -549.9,160.6 -819.5,257.8 -285.2,70.5 -559.8,185.6 -846.8,251.1 -599.4,-159.6 -1210.9,-282.1 -1814.3,-427.2 L 7815.24,17281.9 c -475.28,-117.2 -951.42,-232.1 -1425.06,-355.8 -183.31,-47.8 -407.84,-83.8 -576.21,-166.3 212.02,-118.4 484.04,-179 715.11,-256.7 343.08,-117.5 685.25,-237.5 1026.5,-360.2"
         style="fill:#f3c394;fill-opacity:1;fill-rule:nonzero;stroke:none"
         transform="matrix(0.13333333,0,0,-0.13333333,0,4000)" />
      <path
         id="path22"
         d="m 18146.5,14974.8 2579,751.8 c 480.7,140.1 969.5,262.8 1442.4,427.8 l -4.9,147.5 c -304.3,115.4 -611.9,221 -922.9,316.8 -71.9,27.4 -148.8,45.2 -222.8,66.1 -155.9,-44.2 -321.3,-64.8 -480.7,-92.6 -368.2,-64.3 -740.8,-118.2 -1107.5,-188.8 230,-93.8 471.6,-163.7 705.2,-248.6 -1421.6,-483.9 -2867.4,-916.1 -4306.8,-1343.8 -226.2,-67.2 -1098.6,-357.4 -1278.3,-346.1 -192.1,12 -650.3,236.8 -844.8,317.1 -386.9,159.7 -775.7,324.7 -1166.9,472.9 l -27.3,-3 c -462.6,-48.5 -923.4,-96 -1388.3,-116.6 -239.9,-10.7 -488.6,11.1 -726.6,-13.5 159.6,-119.2 420.3,-180.4 607,-252.4 545.7,-210 1093,-415.8 1641.9,-617.2 296.2,-107.2 592.5,-211.7 884.8,-329.4 119.7,-48.1 253.4,-92.6 362.7,-161.2 421.4,98 837,246.9 1254.1,364.1 l 3000.7,849.1"
         style="fill:#ed9c5b;fill-opacity:1;fill-rule:nonzero;stroke:none"
         transform="matrix(0.13333333,0,0,-0.13333333,0,4000)" />
      <path
         id="path23"
         d="m 21240.1,16618.7 c 311,-95.8 618.6,-201.4 922.9,-316.8 3.9,303.4 -28,609.3 -32,913.3 -275,59.9 -559.2,183.4 -826.3,276.6 -59.1,-273.9 -57.7,-592 -64.6,-873.1"
         style="fill:#a66439;fill-opacity:1;fill-rule:nonzero;stroke:none"
         transform="matrix(0.13333333,0,0,-0.13333333,0,4000)" />
      <path
         id="path24"
         d="m 17840.7,16090.3 c -1224.6,-240.8 -2454.3,-452.2 -3689,-634.2 -332.5,-49.7 -666,-91.5 -1000.4,-125.4 -203.5,-22.1 -414,-32.6 -613.8,-75.8 391.2,-148.2 780,-313.2 1166.9,-472.9 194.5,-80.3 652.7,-305.1 844.8,-317.1 179.7,-11.3 1052.1,278.9 1278.3,346.1 1439.4,427.7 2885.2,859.9 4306.8,1343.8 -233.6,84.9 -475.2,154.8 -705.2,248.6 l -73.3,10.8 c -156.3,-57 -332.4,-85.2 -494.9,-120.3 -339.2,-72.4 -679.2,-140.3 -1020.2,-203.6"
         style="fill:#d7803e;fill-opacity:1;fill-rule:nonzero;stroke:none"
         transform="matrix(0.13333333,0,0,-0.13333333,0,4000)" />
      <path
         id="path25"
         d="m 15925.3,19925.3 c 17,250.9 94.4,509 148.9,754.8 76.1,342.6 142.3,692.9 241.1,1029.5 -225.1,49.3 -445.7,157.1 -672.7,189.6 -116.1,-486.1 -229.6,-972.7 -340.5,-1459.9 -60.3,-262.4 -135.1,-530 -177.4,-795.8 1,-354.9 -2,-709.9 -8.8,-1064.8 269.6,-97.2 550.6,-161.3 819.5,-257.8 9.4,531.9 -46.1,1074.2 -10.1,1604.4"
         style="fill:#5f3b45;fill-opacity:1;fill-rule:nonzero;stroke:none"
         transform="matrix(0.13333333,0,0,-0.13333333,0,4000)" />
      <path
         id="path26"
         d="M 23121.3,23499.1 22131,17215.2 c 4,-304 35.9,-609.9 32,-913.3 l 4.9,-147.5 c 11,-234.8 9,-470.2 9.7,-705.2 -254.4,-100.6 -522.4,-175.8 -783.5,-257.2 -586,-180.1 -1174.1,-353 -1764.4,-518.5 l -3790.1,-1128 -958,-283.7 c -170,-50.1 -349.1,-92.7 -513.9,-156.9 l 3.3,-126.7 1.5,-431.7 2.2,-25.2 c 3.3,-37.9 0.9,-80.1 30.8,-105.2 346.1,79.1 691.5,215.5 1032.9,318.3 l 2698.5,833.6 3500.3,1078 c 455.4,139.1 917.7,260.7 1369.7,410.1 44.2,19.1 94.6,31 140.7,45.7 -36.7,459.1 -42,924.7 -61.4,1385 -13.4,318.7 -50.4,656.3 -32.3,974.2 9.1,159.9 39.7,321.6 61.6,480.3 l 124,891.5 437.9,3012.7 447,3080.3 119.8,775 c 21,131 31.4,288.7 80,412.1 -237.6,-120 -536.3,-172.5 -791.1,-249.8 -126,-789.4 -281,-1574.9 -411.8,-2364"
         style="fill:#ed9c5b;fill-opacity:1;fill-rule:nonzero;stroke:none"
         transform="matrix(0.13333333,0,0,-0.13333333,0,4000)" />
      <path
         id="path27"
         d="M 23121.3,23499.1 22131,17215.2 c 4,-304 35.9,-609.9 32,-913.3 l 4.9,-147.5 c 11,-234.8 9,-470.2 9.7,-705.2 -254.4,-100.6 -522.4,-175.8 -783.5,-257.2 -586,-180.1 -1174.1,-353 -1764.4,-518.5 l -3790.1,-1128 -958,-283.7 c -170,-50.1 -349.1,-92.7 -513.9,-156.9 l 3.3,-126.7 1.5,-431.7 2.2,-25.2 c 3.3,-37.9 0.9,-80.1 30.8,-105.2 346.1,79.1 691.5,215.5 1032.9,318.3 l 2698.5,833.6 3500.3,1078 c 455.4,139.1 917.7,260.7 1369.7,410.1 44.2,19.1 94.6,31 140.7,45.7 -36.7,459.1 -42,924.7 -61.4,1385 -13.4,318.7 -50.4,656.3 -32.3,974.2 9.1,159.9 39.7,321.6 61.6,480.3 l 124,891.5 437.9,3012.7 447,3080.3 119.8,775 c 21,131 31.4,288.7 80,412.1 -237.6,-120 -536.3,-172.5 -791.1,-249.8 -126,-789.4 -281,-1574.9 -411.8,-2364"
         style="fill:url(#linearGradient28);fill-opacity:1;fill-rule:nonzero;stroke:none"
         transform="matrix(0.13333333,0,0,-0.13333333,0,4000)"
         clip-path="url(#clipPath28)" />
      <path
         id="path29"
         d="m 14881.6,13261.8 958,283.7 3790.1,1128 c 590.3,165.5 1178.4,338.4 1764.4,518.5 261.1,81.4 529.1,156.6 783.5,257.2 -0.7,235 1.3,470.4 -9.7,705.2 -472.9,-165 -961.7,-287.7 -1442.4,-427.8 l -2579,-751.8 -3000.7,-849.1 c -417.1,-117.2 -832.7,-266.1 -1254.1,-364.1 1.8,-194.8 34.1,-535.8 -13.4,-716.1 l -102.8,33.2 -8.6,-17.3 c 74.9,-24.1 149.9,-47.7 225.2,-70.6 126.5,33.8 250.9,74.2 375.6,114.1 164.8,64.2 343.9,106.8 513.9,156.9"
         style="fill:#a75a4e;fill-opacity:1;fill-rule:nonzero;stroke:none"
         transform="matrix(0.13333333,0,0,-0.13333333,0,4000)" />
      <path
         id="path30"
         d="m 22231.4,22013.3 c -120.1,-681.5 -307.5,-1350.8 -429.9,-2031.3 -160.3,-831.1 -325.9,-1661.1 -496.8,-2490.2 267.1,-93.2 551.3,-216.7 826.3,-276.6 l 990.3,6283.9 c 130.8,789.1 285.8,1574.6 411.8,2364 -144.5,36.1 -287.6,76.8 -429.4,122.2 -62.6,-86.4 -74,-248.1 -97.8,-353 -238.1,-1052.8 -435.5,-2115.6 -676.7,-3167 -41.3,-148.6 -68,-300.8 -97.8,-452"
         style="fill:#ed9c5b;fill-opacity:1;fill-rule:nonzero;stroke:none"
         transform="matrix(0.13333333,0,0,-0.13333333,0,4000)" />
      <path
         id="path31"
         d="m 22231.4,22013.3 c -120.1,-681.5 -307.5,-1350.8 -429.9,-2031.3 -160.3,-831.1 -325.9,-1661.1 -496.8,-2490.2 267.1,-93.2 551.3,-216.7 826.3,-276.6 l 990.3,6283.9 c 130.8,789.1 285.8,1574.6 411.8,2364 -144.5,36.1 -287.6,76.8 -429.4,122.2 -62.6,-86.4 -74,-248.1 -97.8,-353 -238.1,-1052.8 -435.5,-2115.6 -676.7,-3167 -41.3,-148.6 -68,-300.8 -97.8,-452"
         style="fill:url(#linearGradient32);fill-opacity:1;fill-rule:nonzero;stroke:none"
         transform="matrix(0.13333333,0,0,-0.13333333,0,4000)"
         clip-path="url(#clipPath32)" />
      <path
         id="path33"
         d="m 22231.4,22013.3 c -120.1,-681.5 -307.5,-1350.8 -429.9,-2031.3 -160.3,-831.1 -325.9,-1661.1 -496.8,-2490.2 267.1,-93.2 551.3,-216.7 826.3,-276.6 l 990.3,6283.9 c 130.8,789.1 285.8,1574.6 411.8,2364 -144.5,36.1 -287.6,76.8 -429.4,122.2 -62.6,-86.4 -74,-248.1 -97.8,-353 -238.1,-1052.8 -435.5,-2115.6 -676.7,-3167 -41.3,-148.6 -68,-300.8 -97.8,-452"
         style="fill:url(#linearGradient34);fill-opacity:1;fill-rule:nonzero;stroke:none"
         transform="matrix(0.13333333,0,0,-0.13333333,0,4000)"
         clip-path="url(#clipPath34)" />
      <path
         id="path35"
         d="m 22147.1,22015.3 -49.9,-0.8 -109.7,-17.9 c -57.6,-130.5 -65.3,-332.2 -92.7,-475.6 -82.7,-438 -169.1,-875.3 -259.3,-1311.9 -12.3,-57.6 -21.1,-117.2 -46.4,-170.7 70.4,-20.4 140.4,-42.1 212.4,-56.4 122.4,680.5 309.8,1349.8 429.9,2031.3 l -84.3,2"
         style="fill:#5f3b45;fill-opacity:1;fill-rule:nonzero;stroke:none"
         transform="matrix(0.13333333,0,0,-0.13333333,0,4000)" />
      <path
         id="path36"
         d="m 18136.9,13568 -2698.5,-833.6 c -341.4,-102.8 -686.8,-239.2 -1032.9,-318.3 -29.9,25.1 -27.5,67.3 -30.8,105.2 l -2.2,25.2 c -1.1,-61.7 -4.2,-124.1 -0.9,-185.7 l 15.6,-10099 c 93.9,-28.3 388.2,156.3 481.6,204.9 -5.1,517 53.6,1045.3 86.2,1561.7 40.2,680.3 84.5,1360.4 132.8,2040.3 37.4,474.4 90.1,947.4 129,1421.6 15.1,183.5 50.7,1013 97.2,1114.9 5.4,11.9 16.1,20.7 24.2,31 -25.8,59.2 70.2,866.7 84.9,967.4 3.7,-81.8 8.3,-163.5 13.9,-245.2 -3.5,-248.3 6,-497.7 14.7,-745.9 95.8,20.6 160.7,67.1 234.8,129.3 5.9,146.6 23.2,302.2 7.9,448.1 -27.6,159.6 18.5,529.9 27.2,709.3 l 97.7,1916.8 c 228.9,45.4 470,141.4 694.6,210.3 l 1554.7,483.1 c 615.3,192.9 1232,381.2 1850,564.9 404.2,120.2 817.2,228.7 1215.2,367.5 333.8,58.3 694.1,197.7 1020.8,297.3 29,-690 15.7,-1378.9 25.7,-2069 l 79.7,-5117.5 c 12,-584.9 -12.3,-1172.1 21.8,-1756.2 126.3,-22 391.7,143.6 509.3,200.7 -34.3,481.6 27.3,972.3 17.1,1455.1 -6.4,634.9 28.1,1276.1 41.2,1911.5 l 107.2,4353.3 36.4,1430.4 c 7.4,302.5 21,606.2 13.9,908.7 -452,-149.4 -914.3,-271 -1369.7,-410.1 l -3500.3,-1078"
         style="fill:#844e2a;fill-opacity:1;fill-rule:nonzero;stroke:none"
         transform="matrix(0.13333333,0,0,-0.13333333,0,4000)" />
      <path
         id="path37"
         d="m 15437,9358.4 c -5.6,81.7 -10.2,163.4 -13.9,245.2 -14.7,-100.7 -110.7,-908.2 -84.9,-967.4 l 113.5,-23.7 c -8.7,248.2 -18.2,497.6 -14.7,745.9"
         style="fill:#ca8e5b;fill-opacity:1;fill-rule:nonzero;stroke:none"
         transform="matrix(0.13333333,0,0,-0.13333333,0,4000)" />
      <path
         id="path38"
         d="m 22260,6552.6 -79.7,5117.5 c -10,690.1 3.3,1379 -25.7,2069 -326.7,-99.6 -687,-239 -1020.8,-297.3 113.3,-1161.8 178.4,-2326.1 270.5,-3489.5 l 152.9,-1922 c 23.2,-306.6 54.9,-615.7 65.6,-922.9 l 168.9,-2138.7 c 155.3,-51.5 347.9,-92.8 490.1,-172.3 -34.1,584.1 -9.8,1171.3 -21.8,1756.2"
         style="fill:#d7803e;fill-opacity:1;fill-rule:nonzero;stroke:none"
         transform="matrix(0.13333333,0,0,-0.13333333,0,4000)" />
      <path
         id="path39"
         d="m 7209.56,5528.7 c -25.55,990.2 -11.31,1983 -13.83,2973.7 l 4.36,5383.5 c 281.69,-97.5 564.26,-211.6 838.36,-328.9 l 2855.05,-1133.9 c 827.7,-337 1658.3,-666.6 2491.8,-988.9 54.3,-434.7 82.4,-875.1 116.1,-1311.8 32.6,-421.3 71.8,-846.1 81.6,-1268.8 l 276.8,-4590 c 33.6,-603.9 89.5,-1212 103.1,-1816.4 l 424.3,-185.4 -15.6,10099 c -812.8,205 -1598.2,552.1 -2383.5,843.7 -1414.2,527.5 -2823.02,1069.1 -4226.44,1624.7 -512.26,201.1 -1020.09,416.1 -1534.34,611.7 l 162.13,-2700.6 c 95.21,-1560.1 203.71,-3119.2 325.49,-4677.4 34.74,-447.4 55.31,-896.7 95.77,-1343.6 27.99,-355.8 59.16,-711.3 93.51,-1066.5 105.21,-34 207.02,-73.2 305.34,-124.1"
         style="fill:#ca8e5b;fill-opacity:1;fill-rule:nonzero;stroke:none"
         transform="matrix(0.13333333,0,0,-0.13333333,0,4000)" />
      <path
         id="path40"
         d="m 11988.1,13204.5 c 785.3,-291.6 1570.7,-638.7 2383.5,-843.7 -3.3,61.6 -0.2,124 0.9,185.7 l -1.5,431.7 c -91.8,-5.9 -213.9,-61.6 -300.4,-49.7 -42.3,5.8 -53.7,31.8 -78.5,62.3 -75.3,22.9 -150.3,46.5 -225.2,70.6 -366,111.7 -725.8,257.5 -1083.7,392.6 l -2110.4,804.6 -2886.32,1077.3 c -494.82,188.2 -1003.27,362.9 -1485.47,580.7 -2.31,-158.9 22.06,-317 26.31,-475.7 514.25,-195.6 1022.08,-410.6 1534.34,-611.7 1403.42,-555.6 2812.24,-1097.2 4226.44,-1624.7"
         style="fill:#a66439;fill-opacity:1;fill-rule:nonzero;stroke:none"
         transform="matrix(0.13333333,0,0,-0.13333333,0,4000)" />
      <path
         id="path41"
         d="m 13992.1,12990.8 c 24.8,-30.5 36.2,-56.5 78.5,-62.3 86.5,-11.9 208.6,43.8 300.4,49.7 l -3.3,126.7 c -124.7,-39.9 -249.1,-80.3 -375.6,-114.1"
         style="fill:#844e2a;fill-opacity:1;fill-rule:nonzero;stroke:none"
         transform="matrix(0.13333333,0,0,-0.13333333,0,4000)" />
      <path
         id="path42"
         d="m 7807.8,7886.3 62.84,1460.4 c 44.08,1403.9 100.02,2807.3 167.81,4210.3 -274.1,117.3 -556.67,231.4 -838.36,328.9 l -4.36,-5383.5 c 2.52,-990.7 -11.72,-1983.5 13.83,-2973.7 174.84,66 350.18,130.6 526.02,194 -5.8,436.2 41.57,873.1 45.5,1309.8 -7.7,283.2 14.3,570.9 26.72,853.8"
         style="fill:#844e2a;fill-opacity:1;fill-rule:nonzero;stroke:none"
         transform="matrix(0.13333333,0,0,-0.13333333,0,4000)" />
      <path
         id="path43"
         d="m 12398.9,13598 c 458.9,-172.9 914.1,-356.2 1376.6,-519.3 l 102.8,-33.2 c 47.5,180.3 15.2,521.3 13.4,716.1 -109.3,68.6 -243,113.1 -362.7,161.2 -292.3,117.7 -588.6,222.2 -884.8,329.4 -548.9,201.4 -1096.2,407.2 -1641.9,617.2 -186.7,72 -447.4,133.2 -607,252.4 -356.5,96.7 -708.93,246.4 -1055.59,374.2 l -1784.13,646.9 c -341.25,122.7 -683.42,242.7 -1026.5,360.2 -231.07,77.7 -503.09,138.3 -715.11,256.7 -2.5,-216.4 -8.04,-432.7 -16.61,-648.9 l 386.4,-146.1 c 654.63,-217 1295.88,-479.4 1940.27,-724.8 l 4274.87,-1642"
         style="fill:#d7803e;fill-opacity:1;fill-rule:nonzero;stroke:none"
         transform="matrix(0.13333333,0,0,-0.13333333,0,4000)" />
      <path
         id="path44"
         d="m 10572.8,14258.6 2110.4,-804.6 c 357.9,-135.1 717.7,-280.9 1083.7,-392.6 l 8.6,17.3 c -462.5,163.1 -917.7,346.4 -1376.6,519.3 l -4274.87,1642 c -644.39,245.4 -1285.64,507.8 -1940.27,724.8 l 17.25,-48.2 c 482.2,-217.8 990.65,-392.5 1485.47,-580.7 l 2886.32,-1077.3"
         style="fill:#7e3528;fill-opacity:1;fill-rule:nonzero;stroke:none"
         transform="matrix(0.13333333,0,0,-0.13333333,0,4000)" />
    </g>
  </g>
</svg>
