<?xml version="1.0" encoding="UTF-8" standalone="no"?>
<!-- Created with Inkscape (http://www.inkscape.org/) -->

<svg
   version="1.1"
   id="svg1"
   width="2829.3333"
   height="2829.3333"
   viewBox="0 0 2829.3333 2829.3333"
   sodipodi:docname="2027_U1RVRElPIFBDIDE4MDYtMTI.eps"
   xmlns:inkscape="http://www.inkscape.org/namespaces/inkscape"
   xmlns:sodipodi="http://sodipodi.sourceforge.net/DTD/sodipodi-0.dtd"
   xmlns="http://www.w3.org/2000/svg"
   xmlns:svg="http://www.w3.org/2000/svg">
  <defs
     id="defs1" />
  <sodipodi:namedview
     id="namedview1"
     pagecolor="#ffffff"
     bordercolor="#000000"
     borderopacity="0.25"
     inkscape:showpageshadow="2"
     inkscape:pageopacity="0.0"
     inkscape:pagecheckerboard="0"
     inkscape:deskcolor="#d1d1d1">
    <inkscape:page
       x="0"
       y="0"
       inkscape:label="1"
       id="page1"
       width="2829.3333"
       height="2829.3333"
       margin="0"
       bleed="0" />
  </sodipodi:namedview>
  <g
     id="g1"
     inkscape:groupmode="layer"
     inkscape:label="1">
    <g
       id="group-R5">
      <path
         id="path2"
         d="m 9448.99,9186.2 150.84,58.2 547.87,-1187.3 c 33,-85.3 -9.7,-181.1 -95.1,-214.1 -85.38,-33 -181.34,9.7 -214.25,95.1 l -389.36,1248.1"
         style="fill:#a4aeae;fill-opacity:1;fill-rule:nonzero;stroke:none"
         transform="matrix(0.13333333,0,0,-0.13333333,0,2829.3333)" />
      <path
         id="path3"
         d="m 9916.52,7954.3 c -17.32,44.9 5.09,95.3 49.96,112.5 44.82,17.3 95.12,-5.1 112.42,-49.9 17.3,-44.9 -5.1,-95.2 -49.9,-112.6 -44.88,-17.1 -95.21,5.3 -112.48,50"
         style="fill:#747a7a;fill-opacity:1;fill-rule:nonzero;stroke:none"
         transform="matrix(0.13333333,0,0,-0.13333333,0,2829.3333)" />
      <path
         id="path4"
         d="m 9208.68,9170.5 c -14.17,36.7 4.22,78 41.08,92.3 l 446.64,171.8 c 36.78,14.1 78.22,-4.1 92.38,-41 14.18,-36.8 -4.25,-78.1 -41.06,-92.4 l -446.64,-171.9 c -36.8,-14.2 -78.17,4.1 -92.4,41.2"
         style="fill:#747a7a;fill-opacity:1;fill-rule:nonzero;stroke:none"
         transform="matrix(0.13333333,0,0,-0.13333333,0,2829.3333)" />
      <path
         id="path5"
         d="m 10221,7969.8 -252.81,355.9 5101.91,6245.1 135.6,-558.9 L 10221,7969.8"
         style="fill:#ed1c35;fill-opacity:1;fill-rule:nonzero;stroke:none"
         transform="matrix(0.13333333,0,0,-0.13333333,0,2829.3333)" />
      <path
         id="path6"
         d="M 14639.8,13495.9 C 14180.9,12936 13662.5,12432.2 13216,11860 c -495.5,-634.6 -962.6,-1294.5 -1493.5,-1900.7 -217.3,-248.1 -436.7,-526.2 -700.5,-727.2 -173.6,-132.5 -348.5,-195 -530.2,-265.4 l -523.61,-641 252.81,-355.9 4984.7,6042.1 -73.9,304.4 c -106.3,-306.3 -308.7,-596.7 -492,-820.4"
         style="fill:#d1182e;fill-opacity:1;fill-rule:nonzero;stroke:none"
         transform="matrix(0.13333333,0,0,-0.13333333,0,2829.3333)" />
      <path
         id="path7"
         d="m 15160,14420.8 -5925.18,-2608.5 -38.02,571.8 5812.4,2500.2 150.8,-463.5"
         style="fill:#ed1c35;fill-opacity:1;fill-rule:nonzero;stroke:none"
         transform="matrix(0.13333333,0,0,-0.13333333,0,2829.3333)" />
      <path
         id="path8"
         d="m 15013.7,14870.3 c -378.2,-745.8 -1376.6,-972.8 -2140.7,-1286.6 -690.8,-283.7 -1373.4,-586.2 -2062.3,-874 -342.3,-142.9 -689.9,-280.2 -1043.55,-392.4 -209.5,-66.5 -372.52,-97.9 -563.23,-40.4 l 30.9,-464.6 5925.18,2608.5 -146.3,449.5"
         style="fill:#d1182e;fill-opacity:1;fill-rule:nonzero;stroke:none"
         transform="matrix(0.13333333,0,0,-0.13333333,0,2829.3333)" />
      <path
         id="path9"
         d="m 9401.86,11745.3 -542.57,-139.3 -626.79,2615.7 542.55,139.4 626.81,-2615.8"
         style="fill:#b8c4c3;fill-opacity:1;fill-rule:nonzero;stroke:none"
         transform="matrix(0.13333333,0,0,-0.13333333,0,2829.3333)" />
      <path
         id="path10"
         d="m 16164.1,5148.5 h 49.699 v 6354.51 h -49.699 z"
         style="fill:#b8c4c3;fill-opacity:1;fill-rule:nonzero;stroke:none"
         transform="matrix(0.13333333,0,0,-0.13333333,0,2829.3333)" />
      <path
         id="path11"
         d="m 18418,10589.9 -4493.4,-4493.3 35.2,-35.1 4493.3,4493.2"
         style="fill:#b8c4c3;fill-opacity:1;fill-rule:nonzero;stroke:none"
         transform="matrix(0.13333333,0,0,-0.13333333,0,2829.3333)" />
      <path
         id="path12"
         d="m 17406.3,11260.5 -2480.6,-5850.2 45.7,-19.4 2480.7,5850.2"
         style="fill:#b8c4c3;fill-opacity:1;fill-rule:nonzero;stroke:none"
         transform="matrix(0.13333333,0,0,-0.13333333,0,2829.3333)" />
      <path
         id="path13"
         d="m 17403.3,5389.6 -2382.7,5890.8 -46.1,-18.6 2382.7,-5890.9"
         style="fill:#b8c4c3;fill-opacity:1;fill-rule:nonzero;stroke:none"
         transform="matrix(0.13333333,0,0,-0.13333333,0,2829.3333)" />
      <path
         id="path14"
         d="m 18453.1,6096.6 -4493.3,4493.3 -35.2,-35.2 4493.4,-4493.2"
         style="fill:#b8c4c3;fill-opacity:1;fill-rule:nonzero;stroke:none"
         transform="matrix(0.13333333,0,0,-0.13333333,0,2829.3333)" />
      <path
         id="path15"
         d="m 19125,9540.1 -5890.9,-2382.7 18.7,-46.1 5890.9,2382.7"
         style="fill:#b8c4c3;fill-opacity:1;fill-rule:nonzero;stroke:none"
         transform="matrix(0.13333333,0,0,-0.13333333,0,2829.3333)" />
      <path
         id="path16"
         d="m 19123.7,7108.3 -5850.3,2480.6 -19.4,-45.8 5850.3,-2480.6"
         style="fill:#b8c4c3;fill-opacity:1;fill-rule:nonzero;stroke:none"
         transform="matrix(0.13333333,0,0,-0.13333333,0,2829.3333)" />
      <path
         id="path17"
         d="m 16188.9,5189.5 c -1732.1,0 -3136.1,1404.2 -3136.1,3136.2 0,1732.1 1404,3136.2 3136.1,3136.2 1732.1,0 3136.1,-1404.1 3136.1,-3136.2 0,-1732 -1404,-3136.2 -3136.1,-3136.2 z m 0,6622.8 c -1925.6,0 -3486.6,-1561 -3486.6,-3486.6 0,-1925.5 1561,-3486.5 3486.6,-3486.5 1925.6,0 3486.6,1561 3486.6,3486.5 0,1925.6 -1561,3486.6 -3486.6,3486.6"
         style="fill:#b8c4c3;fill-opacity:1;fill-rule:nonzero;stroke:none"
         transform="matrix(0.13333333,0,0,-0.13333333,0,2829.3333)" />
      <path
         id="path18"
         d="m 16188.9,4988.3 c -1843.2,0 -3337.4,1494.2 -3337.4,3337.4 0,1843.2 1494.2,3337.4 3337.4,3337.4 1843.3,0 3337.4,-1494.2 3337.4,-3337.4 0,-1843.2 -1494.1,-3337.4 -3337.4,-3337.4 z m 0,7047.8 c -2049.2,0 -3710.3,-1661.2 -3710.3,-3710.4 0,-2049.2 1661.1,-3710.3 3710.3,-3710.3 2049.2,0 3710.3,1661.1 3710.3,3710.3 0,2049.2 -1661.1,3710.4 -3710.3,3710.4"
         style="fill:#191f21;fill-opacity:1;fill-rule:nonzero;stroke:none"
         transform="matrix(0.13333333,0,0,-0.13333333,0,2829.3333)" />
      <path
         id="path19"
         d="m 13011.6,8300.9 h 6354.5 v 49.7031 h -6354.5 z"
         style="fill:#b8c4c3;fill-opacity:1;fill-rule:nonzero;stroke:none"
         transform="matrix(0.13333333,0,0,-0.13333333,0,2829.3333)" />
      <path
         id="path20"
         d="m 16574.3,8325.7 c 0,-212.8 -172.6,-385.3 -385.4,-385.3 -212.8,0 -385.3,172.5 -385.3,385.3 0,212.8 172.5,385.4 385.3,385.4 212.8,0 385.4,-172.6 385.4,-385.4"
         style="fill:#b8c4c3;fill-opacity:1;fill-rule:nonzero;stroke:none"
         transform="matrix(0.13333333,0,0,-0.13333333,0,2829.3333)" />
      <path
         id="path21"
         d="m 16379,8325.7 c 0,-104.9 -85,-190.2 -190.1,-190.2 -105,0 -190.1,85.3 -190.1,190.2 0,105 85.1,190.1 190.1,190.1 105.1,0 190.1,-85.1 190.1,-190.1"
         style="fill:#9fa9a9;fill-opacity:1;fill-rule:nonzero;stroke:none"
         transform="matrix(0.13333333,0,0,-0.13333333,0,2829.3333)" />
      <path
         id="path22"
         d="m 15725.5,12888.2 -443.7,-75.7 -426.9,2699 443.6,75.6 427,-2698.9"
         style="fill:#b8c4c3;fill-opacity:1;fill-rule:nonzero;stroke:none"
         transform="matrix(0.13333333,0,0,-0.13333333,0,2829.3333)" />
      <path
         id="path23"
         d="m 15466,12885 c -106.4,66.7 -159.4,189.4 -130.7,312.4 20.5,88.3 85.7,133.5 166.1,153.8 46,18.2 97.3,28.7 146.6,27.1 l -259.1,1637.4 c -110.7,-0.3 -221.2,48.8 -293.6,145.6 -63.5,85.1 -73.2,199.7 -34.7,297.7 14.8,37.6 39.2,69.8 66.9,98.9 l -272.6,-46.4 426.9,-2699 251.7,42.9 c -23.7,7.4 -46.6,16.6 -67.5,29.6"
         style="fill:#a7b2b2;fill-opacity:1;fill-rule:nonzero;stroke:none"
         transform="matrix(0.13333333,0,0,-0.13333333,0,2829.3333)" />
      <path
         id="path24"
         d="m 15632.5,13571.5 -470.9,-80.5 -229.8,1410.3 470.9,80.5 229.8,-1410.3"
         style="fill:#ed1c35;fill-opacity:1;fill-rule:nonzero;stroke:none"
         transform="matrix(0.13333333,0,0,-0.13333333,0,2829.3333)" />
      <path
         id="path25"
         d="m 15238.5,14953.8 -306.7,-52.5 229.8,-1410.3 306.5,52.4 c -240.4,336.7 -425.6,1029.8 -229.6,1410.4"
         style="fill:#d1182e;fill-opacity:1;fill-rule:nonzero;stroke:none"
         transform="matrix(0.13333333,0,0,-0.13333333,0,2829.3333)" />
      <path
         id="path26"
         d="m 15441.3,15023.1 c 4.5,-29.4 -13.8,-56.7 -40.8,-61.4 l -456.3,-76.8 c -27,-4.5 -52.5,15.6 -56.9,44.9 l -8.6,56.3 c -4.5,29.3 13.9,56.7 40.8,61.3 l 456.3,76.8 c 27,4.6 52.6,-15.5 56.9,-44.8 l 8.6,-56.3"
         style="fill:#d9d9da;fill-opacity:1;fill-rule:nonzero;stroke:none"
         transform="matrix(0.13333333,0,0,-0.13333333,0,2829.3333)" />
      <path
         id="path27"
         d="m 14892.3,15031 c -10.3,-11.7 -16.2,-27.7 -13.6,-44.9 l 8.6,-56.3 c 4.4,-29.3 29.9,-49.4 56.9,-44.9 l 456.3,76.8 c 22.2,3.8 37.7,23.3 40.3,46.4 -227.3,-60.3 -478.1,-90.8 -548.5,22.9"
         style="fill:#c4c4c5;fill-opacity:1;fill-rule:nonzero;stroke:none"
         transform="matrix(0.13333333,0,0,-0.13333333,0,2829.3333)" />
      <path
         id="path28"
         d="m 15338.2,15627.3 c 4.4,-29.4 -13.9,-56.6 -40.9,-61.3 l -456.2,-76.8 c -27.1,-4.5 -52.6,15.6 -57,44.9 l -38.3,252.6 c -4.5,29.3 13.8,56.7 40.8,61.2 l 456.3,76.9 c 27,4.5 52.5,-15.5 57,-44.9 l 38.3,-252.6"
         style="fill:#a1a0a0;fill-opacity:1;fill-rule:nonzero;stroke:none"
         transform="matrix(0.13333333,0,0,-0.13333333,0,2829.3333)" />
      <path
         id="path29"
         d="m 15682.5,13487.1 c 4.4,-29.4 -13.8,-56.8 -40.9,-61.4 l -456.2,-76.8 c -27,-4.5 -52.5,15.6 -57,45 l -8.5,56.2 c -4.5,29.3 13.8,56.8 40.8,61.3 l 456.3,76.8 c 27,4.6 52.5,-15.5 57,-44.9 l 8.5,-56.2"
         style="fill:#d9d9da;fill-opacity:1;fill-rule:nonzero;stroke:none"
         transform="matrix(0.13333333,0,0,-0.13333333,0,2829.3333)" />
      <path
         id="path30"
         d="m 15518.9,13457.5 c -91.5,-22.8 -204.4,-59.6 -299.7,-53.9 -30.7,1.8 -67.7,15.7 -97.8,36.7 l 7,-46.4 c 4.5,-29.4 30,-49.5 57,-45 l 456.2,76.8 c 27.1,4.6 45.3,32 40.9,61.4 l -3.8,24.8 c -49.7,-24.9 -104.8,-40.6 -159.8,-54.4"
         style="fill:#c4c4c5;fill-opacity:1;fill-rule:nonzero;stroke:none"
         transform="matrix(0.13333333,0,0,-0.13333333,0,2829.3333)" />
      <path
         id="path31"
         d="m 16335.2,8328.7 c 13.8,-143.4 -203.4,-173.3 -231.4,-26.1 -27.9,147.2 -833.1,4191.5 -858.4,4455.3 -25.4,263.8 515.4,352.3 544.9,22.3 29.5,-329.9 531.1,-4307.9 544.9,-4451.5"
         style="fill:#ed1c35;fill-opacity:1;fill-rule:nonzero;stroke:none"
         transform="matrix(0.13333333,0,0,-0.13333333,0,2829.3333)" />
      <path
         id="path32"
         d="m 15462.1,12706.2 c -19.8,103.6 48.7,200.7 98,285.4 -155.4,11.6 -329.4,-81.3 -314.7,-233.7 25.3,-263.8 830.5,-4308.1 858.4,-4455.3 16.9,-89.1 103.1,-112.9 165.5,-86.1 -154.4,453.8 -636.8,3595.8 -807.2,4489.7"
         style="fill:#d1182e;fill-opacity:1;fill-rule:nonzero;stroke:none"
         transform="matrix(0.13333333,0,0,-0.13333333,0,2829.3333)" />
      <path
         id="path33"
         d="m 5174.77,5148.5 h 49.7109 v 6354.51 H 5174.77 Z"
         style="fill:#b8c4c3;fill-opacity:1;fill-rule:nonzero;stroke:none"
         transform="matrix(0.13333333,0,0,-0.13333333,0,2829.3333)" />
      <path
         id="path34"
         d="m 7428.65,10589.9 -4493.28,-4493.3 35.18,-35.1 4493.28,4493.2"
         style="fill:#b8c4c3;fill-opacity:1;fill-rule:nonzero;stroke:none"
         transform="matrix(0.13333333,0,0,-0.13333333,0,2829.3333)" />
      <path
         id="path35"
         d="m 6417.04,11260.5 -2480.66,-5850.2 45.78,-19.4 2480.65,5850.2"
         style="fill:#b8c4c3;fill-opacity:1;fill-rule:nonzero;stroke:none"
         transform="matrix(0.13333333,0,0,-0.13333333,0,2829.3333)" />
      <path
         id="path36"
         d="m 6413.99,5389.6 -2382.62,5890.8 -46.1,-18.6 2382.63,-5890.9"
         style="fill:#b8c4c3;fill-opacity:1;fill-rule:nonzero;stroke:none"
         transform="matrix(0.13333333,0,0,-0.13333333,0,2829.3333)" />
      <path
         id="path37"
         d="m 7463.83,6096.6 -4493.28,4493.3 -35.18,-35.2 4493.28,-4493.2"
         style="fill:#b8c4c3;fill-opacity:1;fill-rule:nonzero;stroke:none"
         transform="matrix(0.13333333,0,0,-0.13333333,0,2829.3333)" />
      <path
         id="path38"
         d="M 8135.68,9540.1 2244.89,7157.4 2263.56,7111.3 8154.35,9494"
         style="fill:#b8c4c3;fill-opacity:1;fill-rule:nonzero;stroke:none"
         transform="matrix(0.13333333,0,0,-0.13333333,0,2829.3333)" />
      <path
         id="path39"
         d="M 8134.46,7108.3 2284.17,9588.9 2264.76,9543.1 8115.08,7062.5"
         style="fill:#b8c4c3;fill-opacity:1;fill-rule:nonzero;stroke:none"
         transform="matrix(0.13333333,0,0,-0.13333333,0,2829.3333)" />
      <path
         id="path40"
         d="m 5199.63,5189.5 c -1732.06,0 -3136.14,1404.2 -3136.14,3136.2 0,1732.1 1404.08,3136.2 3136.14,3136.2 1732.05,0 3136.18,-1404.1 3136.18,-3136.2 0,-1732 -1404.13,-3136.2 -3136.18,-3136.2 z m 0,6622.8 c -1925.61,0 -3486.59,-1561 -3486.59,-3486.6 0,-1925.5 1560.98,-3486.5 3486.59,-3486.5 1925.61,0 3486.62,1561 3486.62,3486.5 0,1925.6 -1561.01,3486.6 -3486.62,3486.6"
         style="fill:#b8c4c3;fill-opacity:1;fill-rule:nonzero;stroke:none"
         transform="matrix(0.13333333,0,0,-0.13333333,0,2829.3333)" />
      <path
         id="path41"
         d="m 5199.63,4988.3 c -1843.22,0 -3337.43,1494.2 -3337.43,3337.4 0,1843.2 1494.21,3337.4 3337.43,3337.4 1843.2,0 3337.42,-1494.2 3337.42,-3337.4 0,-1843.2 -1494.22,-3337.4 -3337.42,-3337.4 z m 0,7047.8 c -2049.16,0 -3710.34,-1661.2 -3710.34,-3710.4 0,-2049.2 1661.18,-3710.3 3710.34,-3710.3 2049.2,0 3710.34,1661.1 3710.34,3710.3 0,2049.2 -1661.14,3710.4 -3710.34,3710.4"
         style="fill:#191f21;fill-opacity:1;fill-rule:nonzero;stroke:none"
         transform="matrix(0.13333333,0,0,-0.13333333,0,2829.3333)" />
      <path
         id="path42"
         d="m 2022.42,8300.9 h 6354.41 v 49.7031 H 2022.42 Z"
         style="fill:#b8c4c3;fill-opacity:1;fill-rule:nonzero;stroke:none"
         transform="matrix(0.13333333,0,0,-0.13333333,0,2829.3333)" />
      <path
         id="path43"
         d="m 5584.97,8325.7 c 0,-212.8 -172.5,-385.3 -385.34,-385.3 -212.78,0 -385.35,172.5 -385.35,385.3 0,212.8 172.57,385.4 385.35,385.4 212.84,0 385.34,-172.6 385.34,-385.4"
         style="fill:#b8c4c3;fill-opacity:1;fill-rule:nonzero;stroke:none"
         transform="matrix(0.13333333,0,0,-0.13333333,0,2829.3333)" />
      <path
         id="path44"
         d="m 5389.75,8325.7 c 0,-104.9 -85.12,-190.2 -190.12,-190.2 -105.01,0 -190.16,85.3 -190.16,190.2 0,105 85.15,190.1 190.16,190.1 105,0 190.12,-85.1 190.12,-190.1"
         style="fill:#9fa9a9;fill-opacity:1;fill-rule:nonzero;stroke:none"
         transform="matrix(0.13333333,0,0,-0.13333333,0,2829.3333)" />
      <path
         id="path45"
         d="m 10055.2,8417.8 c -1543.83,40.9 -4667.07,12.5 -4792.28,10.6 -166.84,-2.5 -164.21,-217.7 -38.41,-219.2 100.14,-1.2 3455.72,-162.6 4818.29,-228.3 l 12.4,436.9"
         style="fill:#ed1c35;fill-opacity:1;fill-rule:nonzero;stroke:none"
         transform="matrix(0.13333333,0,0,-0.13333333,0,2829.3333)" />
      <path
         id="path46"
         d="m 9168.86,8433 c -133.96,-131.9 -293.06,-226.6 -489.02,-232.4 -645.69,-19.1 -1311.24,8.5 -1957.34,33.1 -379.9,14.4 -773.4,8.2 -1151.3,52.1 -109.76,12.8 -247.94,24 -338.19,95.4 l -10.26,8.5 c -15.49,3.3 -31.18,6 -46.58,9.4 -72.27,-59.3 -49.23,-188.8 48.34,-189.9 100.14,-1.2 3455.72,-162.6 4818.29,-228.3 l 12.4,436.9 c -258.26,6.8 -561.06,11.8 -886.34,15.2"
         style="fill:#d1182e;fill-opacity:1;fill-rule:nonzero;stroke:none"
         transform="matrix(0.13333333,0,0,-0.13333333,0,2829.3333)" />
      <path
         id="path47"
         d="m 10215.1,8632.8 -591.1,-147.1 -1124.37,4517.8 591.02,147 1124.45,-4517.7"
         style="fill:#ed1c35;fill-opacity:1;fill-rule:nonzero;stroke:none"
         transform="matrix(0.13333333,0,0,-0.13333333,0,2829.3333)" />
      <path
         id="path48"
         d="m 9579.18,9494.5 c -143.53,498.2 -288.23,997.7 -427.74,1497.1 -124.41,445.4 -289.77,981.4 -217.58,1450.7 28.79,187.2 105.2,355.8 205.57,512.2 l -48.78,196 -591.02,-147 1124.37,-4517.8 591.1,147.1 -89.4,359.1 c -276.19,98.8 -446.31,154.8 -546.52,502.6"
         style="fill:#d1182e;fill-opacity:1;fill-rule:nonzero;stroke:none"
         transform="matrix(0.13333333,0,0,-0.13333333,0,2829.3333)" />
      <path
         id="path49"
         d="m 11012.4,7982.7 c 0,-528.6 -428.6,-957.2 -957.2,-957.2 -528.57,0 -957.11,428.6 -957.11,957.2 0,528.6 428.54,957.2 957.11,957.2 528.6,0 957.2,-428.6 957.2,-957.2"
         style="fill:#b8c4c3;fill-opacity:1;fill-rule:nonzero;stroke:none"
         transform="matrix(0.13333333,0,0,-0.13333333,0,2829.3333)" />
      <path
         id="path50"
         d="m 10490.3,7982.7 c 0,-240.3 -194.8,-435 -435.1,-435 -240.26,0 -435.02,194.7 -435.02,435 0,240.3 194.76,435.1 435.02,435.1 240.3,0 435.1,-194.8 435.1,-435.1"
         style="fill:#8f9898;fill-opacity:1;fill-rule:nonzero;stroke:none"
         transform="matrix(0.13333333,0,0,-0.13333333,0,2829.3333)" />
      <path
         id="path51"
         d="m 10529.3,6760 -152.6,-53.4 -510.97,1203.5 c -30.3,86.3 15.28,180.9 101.71,211.2 86.36,30.3 180.96,-15.3 211.16,-101.7 L 10529.3,6760"
         style="fill:#a4aeae;fill-opacity:1;fill-rule:nonzero;stroke:none"
         transform="matrix(0.13333333,0,0,-0.13333333,0,2829.3333)" />
      <path
         id="path52"
         d="m 10100,8005.7 c 15.9,-45.3 -8,-95 -53.4,-110.8 -45.3,-15.9 -94.95,8 -110.86,53.3 -15.89,45.5 8.07,95.1 53.37,110.9 45.39,15.9 94.99,-8.1 110.89,-53.4"
         style="fill:#747a7a;fill-opacity:1;fill-rule:nonzero;stroke:none"
         transform="matrix(0.13333333,0,0,-0.13333333,0,2829.3333)" />
      <path
         id="path53"
         d="m 10770,6768.3 c 13,-37.1 -6.6,-77.9 -43.9,-91 l -451.8,-158 c -37.2,-12.9 -78,6.6 -91,43.9 -13.1,37.2 6.6,77.9 43.8,91 l 451.8,158.1 c 37.3,13 78,-6.5 91.1,-44"
         style="fill:#747a7a;fill-opacity:1;fill-rule:nonzero;stroke:none"
         transform="matrix(0.13333333,0,0,-0.13333333,0,2829.3333)" />
      <path
         id="path54"
         d="m 9202.88,11694.2 c 0,0 -3813.68,-3342.5 -3902.37,-3431.8 -88.6,-89.2 -244.85,58.8 -130.47,180.2 114.41,121.5 3797.21,3717.4 3797.21,3717.4 l 235.63,-465.8"
         style="fill:#ed1c35;fill-opacity:1;fill-rule:nonzero;stroke:none"
         transform="matrix(0.13333333,0,0,-0.13333333,0,2829.3333)" />
      <path
         id="path55"
         d="m 8740.56,11504.4 c -152.04,-89.8 -276.76,-249.7 -389.77,-366.8 C 7994.47,10768 7605.26,10437.9 7207.02,10114.8 6800.45,9785 6409.61,9443.3 6020.9,9092.9 c -277.57,-250.2 -559.46,-571.5 -887.18,-770.5 18.9,-73.2 107.69,-119.5 166.79,-60 76.49,77 2925.26,2575.1 3705.87,3259.6 17.07,15 -174.62,36.3 -265.82,-17.6"
         style="fill:#d1182e;fill-opacity:1;fill-rule:nonzero;stroke:none"
         transform="matrix(0.13333333,0,0,-0.13333333,0,2829.3333)" />
      <path
         id="path56"
         d="m 9128.81,13214 c 9.06,-37.6 -11.67,-75.1 -46.24,-84.1 l -583.67,-150.1 c -34.52,-8.9 -69.85,14.3 -78.86,51.9 l -17.29,72.2 c -9.04,37.5 11.69,75.3 46.19,84 l 583.69,150.2 c 34.52,8.8 69.84,-14.4 78.88,-51.9 l 17.3,-72.2"
         style="fill:#d9d9da;fill-opacity:1;fill-rule:nonzero;stroke:none"
         transform="matrix(0.13333333,0,0,-0.13333333,0,2829.3333)" />
      <path
         id="path57"
         d="m 9197.92,14310.5 c -293.42,86.5 -1340.04,-263.4 -1426.12,-142.6 -86.05,120.6 -77.45,416.8 0,526.5 77.48,109.7 287.58,-205.2 674.58,-203.9 543.38,2.1 603.47,48.7 719.3,5.2 235.52,-88.4 241.96,-246.8 32.24,-185.2"
         style="fill:#2a343a;fill-opacity:1;fill-rule:nonzero;stroke:none"
         transform="matrix(0.13333333,0,0,-0.13333333,0,2829.3333)" />
      <path
         id="path58"
         d="m 15002.8,15715.7 c 19.6,-83.3 -31.9,-166.8 -115.2,-186.5 l -251.5,-59.4 c -83.2,-19.6 -166.7,32 -186.4,115.2 -19.6,83.3 31.9,166.7 115.2,186.4 l 251.5,59.4 c 83.2,19.6 166.7,-31.9 186.4,-115.1"
         style="fill:#b8c4c3;fill-opacity:1;fill-rule:nonzero;stroke:none"
         transform="matrix(0.13333333,0,0,-0.13333333,0,2829.3333)" />
      <path
         id="path59"
         d="m 14687.4,15652.4 c 25.3,-107 -21.7,-209.8 -105,-229.4 l -251.5,-59.4 c -83.3,-19.7 -171.3,51.2 -196.6,158.3 -25.2,107 21.8,209.7 105,229.4 l 251.5,59.4 c 83.3,19.6 171.3,-51.2 196.6,-158.3"
         style="fill:#3d4d57;fill-opacity:1;fill-rule:nonzero;stroke:none"
         transform="matrix(0.13333333,0,0,-0.13333333,0,2829.3333)" />
    </g>
  </g>
</svg>
