<svg width="60" height="95" viewBox="0 0 60 95" xmlns="http://www.w3.org/2000/svg">
  <defs>
    <!-- Mouse body gradient -->
    <radialGradient id="mouseBodyGrad" cx="0.3" cy="0.3" r="0.9">
      <stop offset="0%" style="stop-color:#ffffff;stop-opacity:1" />
      <stop offset="40%" style="stop-color:#f8f9fa;stop-opacity:1" />
      <stop offset="80%" style="stop-color:#e9ecef;stop-opacity:1" />
      <stop offset="100%" style="stop-color:#dee2e6;stop-opacity:1" />
    </radialGradient>
    
    <!-- Body highlight gradient -->
    <radialGradient id="bodyHighlightGrad" cx="0.4" cy="0.3" r="0.7">
      <stop offset="0%" style="stop-color:#fff3e0;stop-opacity:1" />
      <stop offset="50%" style="stop-color:#ffe0b2;stop-opacity:0.8" />
      <stop offset="100%" style="stop-color:#ffcc02;stop-opacity:0.6" />
    </radialGradient>
    
    <!-- Drop shadow -->
    <filter id="shadow" x="-50%" y="-50%" width="200%" height="200%">
      <feDropShadow dx="1" dy="2" stdDeviation="2" flood-color="#00000025"/>
    </filter>
  </defs>
  
  <!-- Mouse body shape - HIGHLIGHTED -->
  <path d="M 15 30 Q 15 15 25 12 Q 40 8 55 12 Q 65 15 65 30 Q 65 42 55 45 Q 40 48 25 45 Q 15 42 15 30 Z" 
        fill="url(#mouseBodyGrad)" 
        stroke="#ced4da" 
        stroke-width="2.5" 
        filter="url(#shadow)">
    <animate attributeName="stroke-width" values="2.5;3.5;2.5" dur="2s" repeatCount="indefinite"/>
  </path>
  
  <!-- Left button area -->
  <path d="M 15 30 Q 15 15 25 12 Q 32 10 40 12 L 40 35 Q 32 38 25 38 Q 15 38 15 30 Z" 
        fill="url(#mouseBodyGrad)" 
        stroke="#e9ecef" 
        stroke-width="0.5" 
        opacity="0.7"/>
  
  <!-- Right button area -->
  <path d="M 40 12 Q 48 10 55 12 Q 65 15 65 30 Q 65 38 55 38 Q 48 38 40 35 L 40 12 Z" 
        fill="url(#mouseBodyGrad)" 
        stroke="#e9ecef" 
        stroke-width="0.5" 
        opacity="0.7"/>
  
  <!-- Center divider -->
  <line x1="40" y1="12" x2="40" y2="35" stroke="#dee2e6" stroke-width="1"/>
  
  <!-- Scroll wheel -->
  <rect x="37" y="17" width="6" height="12" rx="3" ry="3" 
        fill="#6c757d" 
        stroke="#495057" 
        stroke-width="0.5" 
        opacity="0.6"/>
  
  <!-- Wheel ridges -->
  <line x1="38" y1="19" x2="42" y2="19" stroke="#343a40" stroke-width="0.3" opacity="0.7"/>
  <line x1="38" y1="21" x2="42" y2="21" stroke="#343a40" stroke-width="0.3" opacity="0.7"/>
  <line x1="38" y1="23" x2="42" y2="23" stroke="#343a40" stroke-width="0.3" opacity="0.7"/>
  <line x1="38" y1="25" x2="42" y2="25" stroke="#343a40" stroke-width="0.3" opacity="0.7"/>
  <line x1="38" y1="27" x2="42" y2="27" stroke="#343a40" stroke-width="0.3" opacity="0.7"/>
  
  <!-- Main highlight on mouse body -->
  <ellipse cx="40" cy="20" rx="12" ry="8" fill="#ffffff" opacity="0.7">
    <animate attributeName="opacity" values="0.7;0.4;0.7" dur="3s" repeatCount="indefinite"/>
  </ellipse>
  
  <!-- Secondary highlight -->
  <ellipse cx="35" cy="25" rx="6" ry="4" fill="#ffffff" opacity="0.5">
    <animate attributeName="opacity" values="0.5;0.2;0.5" dur="3s" repeatCount="indefinite" begin="1s"/>
  </ellipse>
  
  <!-- Mouse cable/cord -->
  <path d="M 40 8 Q 35 4 30 6 Q 25 8 20 4 Q 15 0 10 4" 
        fill="none" 
        stroke="#6c757d" 
        stroke-width="1.5" 
        stroke-linecap="round" 
        opacity="0.8"/>
  
  <!-- Optical sensor indicator -->
  <circle cx="30" cy="45" r="3" fill="#dc3545" opacity="0.8">
    <animate attributeName="opacity" values="0.8;0.3;0.8" dur="2.5s" repeatCount="indefinite"/>
  </circle>
  
  <!-- Body glow animation -->
  <path d="M 12 35 Q 12 15 30 12 Q 48 15 48 35 L 48 60 Q 48 80 30 83 Q 12 80 12 60 Z" 
        fill="none" 
        stroke="#ced4da" 
        stroke-width="1" 
        opacity="0">
    <animate attributeName="opacity" values="0;0.6;0" dur="4s" repeatCount="indefinite"/>
    <animate attributeName="stroke-width" values="1;4;1" dur="4s" repeatCount="indefinite"/>
  </path>
  

</svg>
