<svg width="60" height="120" viewBox="0 0 60 120" xmlns="http://www.w3.org/2000/svg">
  <defs>
    <!-- Mouse body gradient -->
    <radialGradient id="mouseBodyGrad" cx="0.3" cy="0.3" r="0.9">
      <stop offset="0%" style="stop-color:#ffffff;stop-opacity:1" />
      <stop offset="40%" style="stop-color:#f8f9fa;stop-opacity:1" />
      <stop offset="80%" style="stop-color:#e9ecef;stop-opacity:1" />
      <stop offset="100%" style="stop-color:#dee2e6;stop-opacity:1" />
    </radialGradient>
    
    <!-- Scroll wheel gradient -->
    <linearGradient id="wheelGrad" x1="0%" y1="0%" x2="100%" y2="0%">
      <stop offset="0%" style="stop-color:#6c757d;stop-opacity:1" />
      <stop offset="50%" style="stop-color:#495057;stop-opacity:1" />
      <stop offset="100%" style="stop-color:#343a40;stop-opacity:1" />
    </linearGradient>
    
    <!-- Drop shadow -->
    <filter id="shadow" x="-50%" y="-50%" width="200%" height="200%">
      <feDropShadow dx="1" dy="2" stdDeviation="2" flood-color="#00000025"/>
    </filter>
  </defs>
  
  <!-- Mouse body shape - same as mouse-body.svg -->
  <path d="M 30 10 Q 45 8 52 18 Q 55 25 55 35 L 55 70 Q 55 85 45 92 Q 35 98 30 98 Q 25 98 15 92 Q 5 85 5 70 L 5 35 Q 5 25 8 18 Q 15 8 30 10 Z" 
        fill="url(#mouseBodyGrad)" 
        stroke="#dee2e6" 
        stroke-width="1" 
        filter="url(#shadow)"/>
  
  <!-- Left button area -->
  <path d="M 5 35 Q 5 25 8 18 Q 15 8 30 10 Q 22 12 18 18 Q 15 25 15 35 L 15 50 Q 15 60 22 65 Q 28 70 30 70 Q 25 75 18 70 Q 5 65 5 50 L 5 35 Z" 
        fill="url(#mouseBodyGrad)" 
        stroke="#e9ecef" 
        stroke-width="0.5" 
        opacity="0.7"/>
  
  <!-- Right button area -->
  <path d="M 30 10 Q 45 8 52 18 Q 55 25 55 35 L 55 50 Q 55 65 45 70 Q 35 75 30 70 Q 32 70 38 65 Q 45 60 45 50 L 45 35 Q 45 25 42 18 Q 38 12 30 10 Z" 
        fill="url(#mouseBodyGrad)" 
        stroke="#e9ecef" 
        stroke-width="0.5" 
        opacity="0.7"/>
  
  <!-- Subtle center divider -->
  <line x1="30" y1="12" x2="30" y2="45" stroke="#e9ecef" stroke-width="0.5" opacity="0.3"/>
  
  <!-- Scroll wheel housing -->
  <rect x="26" y="14" width="8" height="16" rx="4" ry="4" fill="#adb5bd" opacity="0.3"/>
  
  <!-- Scroll wheel - HIGHLIGHTED -->
  <rect x="27" y="15" width="6" height="14" rx="3" ry="3" 
        fill="url(#wheelGrad)" 
        stroke="#343a40" 
        stroke-width="1">
    <animate attributeName="y" values="15;14;15" dur="2s" repeatCount="indefinite"/>
    <animate attributeName="stroke-width" values="1;2;1" dur="2s" repeatCount="indefinite"/>
  </rect>
  
  <!-- Wheel ridges -->
  <line x1="28" y1="17" x2="32" y2="17" stroke="#212529" stroke-width="0.4" opacity="0.8">
    <animate attributeName="y1" values="17;16;17" dur="2s" repeatCount="indefinite"/>
    <animate attributeName="y2" values="17;16;17" dur="2s" repeatCount="indefinite"/>
  </line>
  <line x1="28" y1="19" x2="32" y2="19" stroke="#212529" stroke-width="0.4" opacity="0.8">
    <animate attributeName="y1" values="19;18;19" dur="2s" repeatCount="indefinite"/>
    <animate attributeName="y2" values="19;18;19" dur="2s" repeatCount="indefinite"/>
  </line>
  <line x1="28" y1="21" x2="32" y2="21" stroke="#212529" stroke-width="0.4" opacity="0.8">
    <animate attributeName="y1" values="21;20;21" dur="2s" repeatCount="indefinite"/>
    <animate attributeName="y2" values="21;20;21" dur="2s" repeatCount="indefinite"/>
  </line>
  <line x1="28" y1="23" x2="32" y2="23" stroke="#212529" stroke-width="0.4" opacity="0.8">
    <animate attributeName="y1" values="23;22;23" dur="2s" repeatCount="indefinite"/>
    <animate attributeName="y2" values="23;22;23" dur="2s" repeatCount="indefinite"/>
  </line>
  <line x1="28" y1="25" x2="32" y2="25" stroke="#212529" stroke-width="0.4" opacity="0.8">
    <animate attributeName="y1" values="25;24;25" dur="2s" repeatCount="indefinite"/>
    <animate attributeName="y2" values="25;24;25" dur="2s" repeatCount="indefinite"/>
  </line>
  <line x1="28" y1="27" x2="32" y2="27" stroke="#212529" stroke-width="0.4" opacity="0.8">
    <animate attributeName="y1" values="27;26;27" dur="2s" repeatCount="indefinite"/>
    <animate attributeName="y2" values="27;26;27" dur="2s" repeatCount="indefinite"/>
  </line>
  
  <!-- Main highlight on mouse body -->
  <ellipse cx="30" cy="30" rx="15" ry="12" fill="#ffffff" opacity="0.6">
    <animate attributeName="opacity" values="0.6;0.3;0.6" dur="4s" repeatCount="indefinite"/>
  </ellipse>
  
  <!-- Scroll direction indicators (yellow triangles, gently blinking) -->
  <path d="M30 12 L27 18 L33 18 Z" fill="#FFD600" opacity="0.8">
    <animate attributeName="opacity" values="0.8;0.2;0.8" dur="2s" repeatCount="indefinite"/>
  </path>
  <path d="M30 41 L27 35 L33 35 Z" fill="#FFD600" opacity="0.8">
    <animate attributeName="opacity" values="0.8;0.2;0.8" dur="2s" repeatCount="indefinite" begin="1s"/>
  </path>
  
  <!-- Mouse cable/cord -->
  <path d="M 30 8 Q 25 3 18 5 Q 12 7 8 3 Q 4 -1 0 3" 
        fill="none" 
        stroke="#6c757d" 
        stroke-width="2" 
        stroke-linecap="round" 
        opacity="0.8"/>
  
  <!-- Optical sensor indicator -->
  <!-- Removed for scroll wheel icon -->

</svg>
