<svg width="80" height="60" viewBox="0 0 80 60" xmlns="http://www.w3.org/2000/svg">
  <defs>
    <!-- Mouse body gradient -->
    <radialGradient id="mouseBodyGrad" cx="0.3" cy="0.3" r="0.9">
      <stop offset="0%" style="stop-color:#ffffff;stop-opacity:1" />
      <stop offset="40%" style="stop-color:#f8f9fa;stop-opacity:1" />
      <stop offset="80%" style="stop-color:#e9ecef;stop-opacity:1" />
      <stop offset="100%" style="stop-color:#dee2e6;stop-opacity:1" />
    </radialGradient>
    
    <!-- Scroll wheel gradient -->
    <linearGradient id="wheelGrad" x1="0%" y1="0%" x2="100%" y2="0%">
      <stop offset="0%" style="stop-color:#6c757d;stop-opacity:1" />
      <stop offset="50%" style="stop-color:#495057;stop-opacity:1" />
      <stop offset="100%" style="stop-color:#343a40;stop-opacity:1" />
    </linearGradient>
    
    <!-- Drop shadow -->
    <filter id="shadow" x="-50%" y="-50%" width="200%" height="200%">
      <feDropShadow dx="1" dy="2" stdDeviation="2" flood-color="#00000025"/>
    </filter>
  </defs>
  
  <!-- Mouse body shape -->
  <path d="M 15 30 Q 15 15 25 12 Q 40 8 55 12 Q 65 15 65 30 Q 65 42 55 45 Q 40 48 25 45 Q 15 42 15 30 Z" 
        fill="url(#mouseBodyGrad)" 
        stroke="#ced4da" 
        stroke-width="1" 
        filter="url(#shadow)"/>
  
  <!-- Left button area -->
  <path d="M 15 30 Q 15 15 25 12 Q 32 10 40 12 L 40 35 Q 32 38 25 38 Q 15 38 15 30 Z" 
        fill="url(#mouseBodyGrad)" 
        stroke="#e9ecef" 
        stroke-width="0.5" 
        opacity="0.7"/>
  
  <!-- Right button area -->
  <path d="M 40 12 Q 48 10 55 12 Q 65 15 65 30 Q 65 38 55 38 Q 48 38 40 35 L 40 12 Z" 
        fill="url(#mouseBodyGrad)" 
        stroke="#e9ecef" 
        stroke-width="0.5" 
        opacity="0.7"/>
  
  <!-- Center divider -->
  <line x1="40" y1="12" x2="40" y2="35" stroke="#dee2e6" stroke-width="1"/>
  
  <!-- Scroll wheel housing -->
  <rect x="36" y="16" width="8" height="14" rx="4" ry="4" fill="#adb5bd" opacity="0.3"/>
  
  <!-- Scroll wheel -->
  <rect x="37" y="17" width="6" height="12" rx="3" ry="3" 
        fill="url(#wheelGrad)" 
        stroke="#343a40" 
        stroke-width="0.5">
    <animate attributeName="y" values="17;16;17" dur="2s" repeatCount="indefinite"/>
  </rect>
  
  <!-- Wheel ridges -->
  <line x1="38" y1="19" x2="42" y2="19" stroke="#212529" stroke-width="0.4" opacity="0.8">
    <animate attributeName="y1" values="19;18;19" dur="2s" repeatCount="indefinite"/>
    <animate attributeName="y2" values="19;18;19" dur="2s" repeatCount="indefinite"/>
  </line>
  <line x1="38" y1="21" x2="42" y2="21" stroke="#212529" stroke-width="0.4" opacity="0.8">
    <animate attributeName="y1" values="21;20;21" dur="2s" repeatCount="indefinite"/>
    <animate attributeName="y2" values="21;20;21" dur="2s" repeatCount="indefinite"/>
  </line>
  <line x1="38" y1="23" x2="42" y2="23" stroke="#212529" stroke-width="0.4" opacity="0.8">
    <animate attributeName="y1" values="23;22;23" dur="2s" repeatCount="indefinite"/>
    <animate attributeName="y2" values="23;22;23" dur="2s" repeatCount="indefinite"/>
  </line>
  <line x1="38" y1="25" x2="42" y2="25" stroke="#212529" stroke-width="0.4" opacity="0.8">
    <animate attributeName="y1" values="25;24;25" dur="2s" repeatCount="indefinite"/>
    <animate attributeName="y2" values="25;24;25" dur="2s" repeatCount="indefinite"/>
  </line>
  <line x1="38" y1="27" x2="42" y2="27" stroke="#212529" stroke-width="0.4" opacity="0.8">
    <animate attributeName="y1" values="27;26;27" dur="2s" repeatCount="indefinite"/>
    <animate attributeName="y2" values="27;26;27" dur="2s" repeatCount="indefinite"/>
  </line>
  
  <!-- Highlight on mouse body -->
  <ellipse cx="35" cy="20" rx="8" ry="5" fill="#ffffff" opacity="0.6"/>
  
  <!-- Scroll direction indicators -->
  <path d="M40 8 L38 12 L42 12 Z" fill="#28a745" opacity="0.7">
    <animate attributeName="opacity" values="0.7;0.3;0.7" dur="3s" repeatCount="indefinite"/>
  </path>
  <path d="M40 46 L38 42 L42 42 Z" fill="#28a745" opacity="0.7">
    <animate attributeName="opacity" values="0.7;0.3;0.7" dur="3s" repeatCount="indefinite" begin="1.5s"/>
  </path>

</svg>
