<?xml version="1.0" encoding="UTF-8" standalone="no"?>
<!-- Created with Inkscape (http://www.inkscape.org/) -->

<svg
   version="1.1"
   id="svg1"
   width="466.66666"
   height="488.62668"
   viewBox="0 0 466.66666 488.62668"
   sodipodi:docname="sun_005.eps"
   xmlns:inkscape="http://www.inkscape.org/namespaces/inkscape"
   xmlns:sodipodi="http://sodipodi.sourceforge.net/DTD/sodipodi-0.dtd"
   xmlns="http://www.w3.org/2000/svg"
   xmlns:svg="http://www.w3.org/2000/svg">
  <defs
     id="defs1" />
  <sodipodi:namedview
     id="namedview1"
     pagecolor="#ffffff"
     bordercolor="#000000"
     borderopacity="0.25"
     inkscape:showpageshadow="2"
     inkscape:pageopacity="0.0"
     inkscape:pagecheckerboard="0"
     inkscape:deskcolor="#d1d1d1">
    <inkscape:page
       x="0"
       y="0"
       inkscape:label="1"
       id="page1"
       width="466.66666"
       height="488.62668"
       margin="0"
       bleed="0" />
  </sodipodi:namedview>
  <g
     id="g1"
     inkscape:groupmode="layer"
     inkscape:label="1">
    <path
       id="path1"
       d="M 1228.44,2910.43 760.895,3193.82 886.02,2661.26 c 97.925,102.05 213.74,186.8 342.42,249.17 z M 760.895,470.828 1228.46,754.348 C 1099.79,816.727 983.977,901.457 886.055,1003.51 Z M 2739.25,3193.82 2271.66,2910.4 c 128.67,-62.37 244.47,-147.12 342.38,-249.16 z M 1538.41,653.66 1750.09,149.531 1961.77,653.684 c -68.74,-12.266 -139.5,-18.672 -211.75,-18.672 -72.21,0 -142.93,6.414 -211.61,18.648 z m 1267.06,613.04 544.99,45.53 -414.2,357.42 c -19.59,-144.05 -64.74,-279.93 -130.79,-402.95 z m -2655.935,45.64 545.008,-45.62 C 628.484,1389.73 583.328,1525.6 563.754,1669.6 Z m 3200.925,1040.12 -544.89,45.46 c 65.99,-122.97 111.12,-258.8 130.69,-402.78 z M 2271.69,754.363 2739.25,470.906 2614.02,1003.52 C 2516.11,901.484 2400.33,816.75 2271.69,754.363 Z M 694.449,2397.91 149.535,2352.42 563.746,1995.18 c 19.574,143.96 64.695,279.77 130.703,402.73 z m 1267.331,613.14 -211.69,504.16 -211.69,-504.14 c 68.69,12.26 139.41,18.66 211.62,18.66 72.25,0 143.02,-6.4 211.76,-18.68 z m 659.74,-597.77 c -15.65,23.39 -32.35,46.02 -49.78,68.03 -118.22,149.39 -276.03,266.03 -457.68,333.57 -26.45,9.83 -53.47,18.42 -80.9,26.13 -90.12,25.35 -185.02,39.2 -283.14,39.2 -98.07,0 -192.92,-13.84 -283.02,-39.16 -27.43,-7.71 -54.49,-16.32 -80.96,-26.15 -181.67,-67.52 -339.52,-184.15 -457.755,-333.55 -17.441,-22.03 -34.148,-44.67 -49.808,-68.08 -103.875,-155.35 -167.227,-339.86 -175.184,-538.45 -0.566,-14.09 -1.074,-28.2 -1.074,-42.43 0,-14.21 0.508,-28.32 1.074,-42.41 7.957,-198.67 71.363,-383.25 175.32,-538.65 15.625,-23.36 32.305,-45.94 49.707,-67.92 118.23,-149.39 276.06,-266.015 457.7,-333.535 26.48,-9.848 53.55,-18.449 81,-26.164 90.09,-25.32 184.94,-39.16 283.02,-39.168 98.1,0 192.98,13.848 283.1,39.18 27.45,7.715 54.5,16.316 80.98,26.172 181.6,67.527 339.4,184.135 457.59,333.525 17.41,21.97 34.07,44.55 49.68,67.9 103.97,155.41 167.36,340.04 175.31,538.74 0.57,14.06 1.07,28.14 1.07,42.33 0,14.21 -0.5,28.29 -1.07,42.36 -7.95,198.6 -71.3,383.15 -175.18,538.53 z M 1126.25,2006.35 c -11.64,0 -23.43,2.72 -34.45,8.47 -36.64,19.07 -50.86,64.24 -31.78,100.86 54.51,103.21 153.57,161.31 251.83,163.39 2.49,0.08 3.56,0.03 3.56,0.05 98.02,-0.58 197.6,-57.36 252.13,-159.97 v -0.02 c 19.19,-36.56 5.1,-81.75 -31.45,-100.94 -36.56,-19.17 -81.76,-5.12 -100.96,31.44 -27.56,53.79 -81.63,80.53 -119.72,79.96 -0.53,0 -0.53,0 -0.53,0 h -0.29 c -38.29,0.31 -93.87,-27.7 -121.96,-83.01 -13.32,-25.57 -39.38,-40.23 -66.38,-40.23 z m 1153.43,-348.54 c -114.98,-223.32 -328.63,-345.97 -528.36,-346.9 -0.22,0 -0.47,-0.01 -0.77,-0.01 v 0.01 c -0.25,-0.01 -0.51,-0.01 -0.8,-0.01 -200.18,0.94 -414.39,124.38 -529.5,348.58 v -0.03 c -18.77,36.8 -4.2,81.84 32.61,100.59 36.74,18.8 81.78,4.2 100.55,-32.58 89.16,-175.91 258.53,-267.51 396.47,-267.05 h 0.67 c 138,-0.61 306.92,90.29 396.07,265.54 18.79,36.76 63.85,51.3 100.6,32.48 36.74,-18.83 51.29,-63.87 32.46,-100.62 z m 128.72,360.37 c -36.58,-19.19 -81.78,-5.08 -100.96,31.47 -27.54,53.76 -81.66,80.51 -119.71,79.93 -0.5,0 -0.5,0 -0.5,0 v 0.01 l -0.29,-0.01 c -38.28,0.31 -93.89,-27.69 -121.95,-83 -13.33,-25.58 -39.38,-40.23 -66.38,-40.23 -11.64,0 -23.45,2.73 -34.49,8.49 -36.6,19.08 -50.84,64.24 -31.76,100.84 54.49,103.12 153.4,161.21 251.53,163.39 2.81,0.08 3.84,0.03 3.84,0.05 98.02,-0.58 197.58,-57.35 252.13,-159.99 19.18,-36.57 5.09,-81.77 -31.46,-100.95"
       style="fill:#fbc607;fill-opacity:1;fill-rule:nonzero;stroke:none"
       transform="matrix(0.13333333,0,0,-0.13333333,0,488.62667)" />
    <path
       id="path2"
       d="m 3448.14,1425.45 -471.62,406.93 471.62,406.85 c 45.59,39.34 63.15,102.19 44.54,159.45 -18.63,57.26 -69.78,97.78 -129.79,102.78 l -620.63,51.78 142.54,606.36 c 13.77,58.62 -8.94,119.79 -57.66,155.19 -26.12,18.98 -56.96,28.56 -87.9,28.56 -26.78,0 -53.61,-7.17 -77.51,-21.66 l -532.65,-322.86 -241.11,574.27 c -23.32,55.51 -77.66,91.65 -137.88,91.65 -60.21,0 -114.56,-36.14 -137.87,-91.65 L 1371.07,2998.82 838.402,3321.7 c -23.89,14.47 -50.726,21.65 -77.5,21.65 -30.937,0 -61.781,-9.58 -87.898,-28.56 -48.719,-35.4 -71.445,-96.55 -57.676,-155.17 l 142.469,-606.38 -620.695,-51.8 C 77.0898,2496.43 25.9414,2455.91 7.32813,2398.63 -11.2891,2341.37 6.26953,2278.52 51.875,2239.19 L 523.547,1832.39 51.8711,1425.56 C 6.28516,1386.23 -11.2773,1323.4 7.32031,1266.13 25.9219,1208.86 77.0664,1168.34 137.066,1163.33 L 757.805,1111.39 615.336,505.039 c -13.777,-58.633 8.949,-119.785 57.672,-155.187 26.117,-18.973 56.965,-28.551 87.894,-28.551 26.789,0 53.625,7.176 77.516,21.668 L 1371.08,665.945 1612.21,91.6484 C 1635.53,36.1211 1689.88,0 1750.09,0 c 60.22,0 114.56,36.1211 137.88,91.6484 l 241.11,574.2966 532.65,-322.898 c 23.88,-14.484 50.73,-21.66 77.51,-21.66 30.94,0 61.78,9.59 87.9,28.562 48.72,35.395 71.45,96.567 57.66,155.196 l -142.54,606.225 620.66,51.86 c 59.99,5.01 111.14,45.52 129.76,102.79 18.61,57.25 1.06,120.09 -44.54,159.43 z m -97.68,927.01 -414.2,-357.32 c -19.57,143.98 -64.7,279.81 -130.69,402.78 z m -611.21,841.36 -125.21,-532.58 c -97.91,102.04 -213.71,186.79 -342.38,249.16 z m -989.16,321.39 211.69,-504.16 c -68.74,12.28 -139.51,18.68 -211.76,18.68 -72.21,0 -142.93,-6.4 -211.62,-18.66 z M 1228.44,2910.43 C 1099.76,2848.06 983.945,2763.31 886.02,2661.26 L 760.895,3193.82 Z M 149.535,2352.42 694.449,2397.91 C 628.441,2274.95 583.32,2139.14 563.746,1995.18 Z m 0,-1040.08 414.219,357.26 c 19.574,-144 64.73,-279.87 130.789,-402.88 z m 611.36,-841.512 125.16,532.682 C 983.977,901.457 1099.79,816.727 1228.46,754.348 Z M 1750.09,149.531 1538.41,653.66 c 68.68,-12.234 139.4,-18.648 211.61,-18.648 72.25,0 143.01,6.406 211.75,18.672 z m 521.6,604.832 c 128.64,62.387 244.42,147.121 342.33,249.157 L 2739.25,470.906 Z M 2796.7,1790.06 c -7.95,-198.7 -71.34,-383.33 -175.31,-538.74 -15.61,-23.35 -32.27,-45.93 -49.68,-67.9 -118.19,-149.39 -275.99,-265.998 -457.59,-333.525 -26.48,-9.856 -53.53,-18.457 -80.98,-26.172 -90.12,-25.332 -185,-39.18 -283.1,-39.18 -98.08,0.008 -192.93,13.848 -283.02,39.168 -27.45,7.715 -54.52,16.316 -81,26.164 -181.64,67.52 -339.47,184.145 -457.7,333.535 -17.402,21.98 -34.082,44.56 -49.707,67.92 -103.957,155.4 -167.363,339.98 -175.32,538.65 -0.566,14.09 -1.074,28.2 -1.074,42.41 0,14.23 0.508,28.34 1.074,42.43 7.957,198.59 71.309,383.1 175.184,538.45 15.66,23.41 32.367,46.05 49.808,68.08 118.235,149.4 276.085,266.03 457.755,333.55 26.47,9.83 53.53,18.44 80.96,26.15 90.1,25.32 184.95,39.16 283.02,39.16 98.12,0 193.02,-13.85 283.14,-39.2 27.43,-7.71 54.45,-16.3 80.9,-26.13 181.65,-67.54 339.46,-184.18 457.68,-333.57 17.43,-22.01 34.13,-44.64 49.78,-68.03 103.88,-155.38 167.23,-339.93 175.18,-538.53 0.57,-14.07 1.07,-28.15 1.07,-42.36 0,-14.19 -0.5,-28.27 -1.07,-42.33 z m 8.77,-523.36 c 66.05,123.02 111.2,258.9 130.79,402.95 l 414.2,-357.42 z m -558.25,491.73 c -36.75,18.82 -81.81,4.28 -100.6,-32.48 -89.15,-175.25 -258.07,-266.15 -396.07,-265.54 h -0.67 c -137.94,-0.46 -307.31,91.14 -396.47,267.05 -18.77,36.78 -63.81,51.38 -100.55,32.58 -36.81,-18.75 -51.38,-63.79 -32.61,-100.59 v 0.03 c 115.11,-224.2 329.32,-347.64 529.5,-348.58 0.29,0 0.55,0 0.8,0.01 v -0.01 c 0.3,0 0.55,0.01 0.77,0.01 199.73,0.93 413.38,123.58 528.36,346.9 18.83,36.75 4.28,81.79 -32.46,100.62 z m -932.63,371.16 h 0.29 c 0,0 0,0 0.53,0 38.09,0.57 92.16,-26.17 119.72,-79.96 19.2,-36.56 64.4,-50.61 100.96,-31.44 36.55,19.19 50.64,64.38 31.45,100.94 v 0.02 c -54.53,102.61 -154.11,159.39 -252.13,159.97 0,-0.02 -1.07,0.03 -3.56,-0.05 -98.26,-2.08 -197.32,-60.18 -251.83,-163.39 -19.08,-36.62 -4.86,-81.79 31.78,-100.86 11.02,-5.75 22.81,-8.47 34.45,-8.47 27,0 53.06,14.66 66.38,40.23 28.09,55.31 83.67,83.32 121.96,83.01 z m 873.14,149.53 c 0,-0.02 -1.03,0.03 -3.84,-0.05 -98.13,-2.18 -197.04,-60.27 -251.53,-163.39 -19.08,-36.6 -4.84,-81.76 31.76,-100.84 11.04,-5.76 22.85,-8.49 34.49,-8.49 27,0 53.05,14.65 66.38,40.23 28.06,55.31 83.67,83.31 121.95,83 l 0.29,0.01 v -0.01 c 0,0 0,0 0.5,0 38.05,0.58 92.17,-26.17 119.71,-79.93 19.18,-36.55 64.38,-50.66 100.96,-31.47 36.55,19.18 50.64,64.38 31.46,100.95 -54.55,102.64 -154.11,159.41 -252.13,159.99"
       style="fill:#100f0d;fill-opacity:1;fill-rule:nonzero;stroke:none"
       transform="matrix(0.13333333,0,0,-0.13333333,0,488.62667)" />
  </g>
</svg>
